<svg xmlns="http://www.w3.org/2000/svg" xmlns:xlink="http://www.w3.org/1999/xlink" xmlns:lucid="lucid" width="1064.44" height="873.21"><g transform="translate(5.333333333333172 0.8945686900958378)" lucid:page-tab-id="0_0"><path d="M0 0h1870.4v1323.2H0z" fill="#fff"/><path d="M24 314.77c0-2.76 2.24-5 5-5h150c2.76 0 5 2.24 5 5v109c0 2.76-2.24 5-5 5H29c-2.76 0-5-2.24-5-5z" stroke="#000" stroke-width="2" fill="#b2b2b2"/><use xlink:href="#a" transform="matrix(1,0,0,1,32.00000000000006,317.77209797657076) translate(19.074999999999996 44.3)"/><use xlink:href="#b" transform="matrix(1,0,0,1,32.00000000000006,317.77209797657076) translate(49.55 65.9)"/><path d="M399.1 24.1c0-2.76 2.24-5 5-5h150c2.77 0 5 2.24 5 5v110c0 2.77-2.23 5-5 5h-150c-2.76 0-5-2.23-5-5z" stroke="#000" stroke-width="2" fill="#fff"/><use xlink:href="#c" transform="matrix(1,0,0,1,407.10543130990413,27.105431309904162) translate(23.549999999999997 55.6)"/><path d="M699.1 737.32c0-2.77 2.24-5 5-5h150c2.77 0 5 2.23 5 5v110c0 2.76-2.23 5-5 5h-150c-2.76 0-5-2.24-5-5z" stroke="#000" stroke-width="2" fill="#e5e5e5"/><use xlink:href="#d" transform="matrix(1,0,0,1,707.1054313099041,740.3162939297124) translate(20.124999999999993 55.6)"/><path d="M879.1 737.32c0-2.77 2.24-5 5-5h150c2.77 0 5 2.23 5 5v110c0 2.76-2.23 5-5 5h-150c-2.76 0-5-2.24-5-5z" stroke="#000" stroke-width="2" fill="#e5e5e5"/><use xlink:href="#e" transform="matrix(1,0,0,1,887.1054313099041,740.3162939297124) translate(1.674999999999983 55.6)"/><path d="M519.1 737.32c0-2.77 2.24-5 5-5h150c2.77 0 5 2.23 5 5v110c0 2.76-2.23 5-5 5h-150c-2.76 0-5-2.24-5-5z" stroke="#000" stroke-width="2" fill="#e5e5e5"/><use xlink:href="#f" transform="matrix(1,0,0,1,527.1054313099041,740.3162939297124) translate(25.549999999999997 44.8)"/><use xlink:href="#g" transform="matrix(1,0,0,1,527.1054313099041,740.3162939297124) translate(28.549999999999997 66.4)"/><path d="M192 314.77c0-2.76 2.24-5 5-5h150c2.76 0 5 2.24 5 5v110c0 2.76-2.24 5-5 5H197c-2.76 0-5-2.24-5-5z" stroke="#000" stroke-width="2" fill="#e5e5e5"/><use xlink:href="#h" transform="matrix(1,0,0,1,199.9999999999999,317.77209797657076) translate(8.099999999999994 55.6)"/><use xlink:href="#i" transform="matrix(1,0,0,1,199.9999999999999,317.77209797657076) translate(91 55.6)"/><path d="M519.1 554.92c0-2.76 2.24-5 5-5h150c2.77 0 5 2.24 5 5v110c0 2.76-2.23 5-5 5h-150c-2.76 0-5-2.24-5-5z" stroke="#000" stroke-width="2" fill="#b2b2b2"/><use xlink:href="#j" transform="matrix(1,0,0,1,527.1054313099041,557.9217252396165) translate(11.074999999999996 55.6)"/><path d="M779.1 554.42c0-2.76 2.24-5 5-5h150c2.77 0 5 2.24 5 5v111c0 2.76-2.23 5-5 5h-150c-2.76 0-5-2.24-5-5z" stroke="#000" stroke-width="2" fill="#b2b2b2"/><use xlink:href="#k" transform="matrix(1,0,0,1,787.1054313099041,557.4217252396165) translate(11.074999999999996 45.3)"/><use xlink:href="#l" transform="matrix(1,0,0,1,787.1054313099041,557.4217252396165) translate(30.525 66.9)"/><path d="M599.1 730.32v-40.9" stroke="#000" stroke-width="2" fill="none"/><path d="M600.1 731.32h-2v-1.03h2z"/><path d="M599.1 674.16l4.64 14.26h-9.27z" stroke="#000" stroke-width="2" fill="#fff"/><path d="M779.1 730.32v-28.95h80v-11.45" stroke="#000" stroke-width="2" fill="none"/><path d="M780.1 731.32h-2v-1.03h2z"/><path d="M859.1 674.66l4.64 14.26h-9.27z" stroke="#000" stroke-width="2" fill="#fff"/><path d="M967.1 730.32v-28.95h-108v-11.45" stroke="#000" stroke-width="2" fill="none"/><path d="M968.1 731.32h-2v-1.03h2z"/><path d="M859.1 674.66l4.64 14.26h-9.27z" stroke="#000" stroke-width="2" fill="#fff"/><path d="M599.1 547.92v-27.3h-120v-9.8" stroke="#000" stroke-width="2" fill="none"/><path d="M600.1 548.92h-2v-1.02h2z"/><path d="M479.1 495.55l4.64 14.27h-9.27z" stroke="#000" stroke-width="2" fill="#fff"/><path d="M859.1 547.42v-27.05h-380v-9.55" stroke="#000" stroke-width="2" fill="none"/><path d="M860.1 548.42h-2v-1.02h2z"/><path d="M479.1 495.55l4.64 14.27h-9.27z" stroke="#000" stroke-width="2" fill="#fff"/><path d="M399.1 378.32c0-2.77 2.24-5 5-5h150c2.77 0 5 2.23 5 5v108c0 2.76-2.23 5-5 5h-150c-2.76 0-5-2.24-5-5z" stroke="#000" stroke-width="2" fill="#666"/><use xlink:href="#m" transform="matrix(1,0,0,1,407.10543130990413,381.3162939297124) translate(49.525 54.6)"/><path d="M479.1 371.32v-34.6" stroke="#000" stroke-width="2" fill="none"/><path d="M480.1 372.32h-2v-1.03h2z"/><path d="M479.1 321.45l4.64 14.26h-9.27z" stroke="#000" stroke-width="2" fill="#fff"/><path d="M99.1 555.42c0-2.76 2.24-5 5-5h150c2.77 0 5 2.24 5 5v110c0 2.76-2.23 5-5 5h-150c-2.76 0-5-2.24-5-5z" stroke="#000" stroke-width="2" fill="#666"/><use xlink:href="#n" transform="matrix(1,0,0,1,107.10543130990413,558.4217252396165) translate(21.574999999999996 44.8)"/><use xlink:href="#o" transform="matrix(1,0,0,1,107.10543130990413,558.4217252396165) translate(49.525 66.4)"/><path d="M279.1 554.42c0-2.76 2.24-5 5-5h150c2.77 0 5 2.24 5 5v111c0 2.76-2.23 5-5 5h-150c-2.76 0-5-2.24-5-5z" stroke="#000" stroke-width="2" fill="#666"/><use xlink:href="#p" transform="matrix(1,0,0,1,287.10543130990413,557.4217252396165) translate(20.074999999999996 23.69999999999999)"/><use xlink:href="#q" transform="matrix(1,0,0,1,287.10543130990413,557.4217252396165) translate(49.525 45.29999999999999)"/><use xlink:href="#r" transform="matrix(1,0,0,1,287.10543130990413,557.4217252396165) translate(7.625 66.89999999999999)"/><use xlink:href="#s" transform="matrix(1,0,0,1,287.10543130990413,557.4217252396165) translate(49.525 88.5)"/><path d="M179.1 548.42v-27.55h300v-10.05" stroke="#000" stroke-width="2" fill="none"/><path d="M180.1 549.42h-2v-1.02h2z"/><path d="M479.1 495.55l4.64 14.27h-9.27z" stroke="#000" stroke-width="2" fill="#fff"/><path d="M359.1 547.42v-27.05h120v-9.55" stroke="#000" stroke-width="2" fill="none"/><path d="M360.1 548.42h-2v-1.02h2z"/><path d="M479.1 495.55l4.64 14.27h-9.27z" stroke="#000" stroke-width="2"/><path d="M359.1 547.42v-27.05h120v-9.55" stroke="#000" stroke-width="2" fill="none"/><path d="M360.1 548.42h-2v-1.02h2z"/><path d="M479.1 495.55l4.64 14.27h-9.27z" stroke="#000" stroke-width="2" fill="#fff"/><path d="M399.1 202.2c0-2.75 2.24-5 5-5h150c2.77 0 5 2.25 5 5v110c0 2.77-2.23 5-5 5h-150c-2.76 0-5-2.23-5-5z" stroke="#000" stroke-width="2" fill="#666"/><use xlink:href="#t" transform="matrix(1,0,0,1,407.10543130990413,205.21086261980827) translate(29.574999999999996 44.8)"/><use xlink:href="#u" transform="matrix(1,0,0,1,407.10543130990413,205.21086261980827) translate(41.05 66.4)"/><path d="M479.1 195.2v-36.6" stroke="#000" stroke-width="2" fill="none"/><path d="M480.1 196.2h-2v-1h2z"/><path d="M479.1 143.34l4.64 14.27h-9.27z" stroke="#000" stroke-width="2" fill="#fff"/><path d="M14.67 19.1H364v430H14.67z" fill-opacity="0"/><path d="M34.07 19.1h19.4m9.72 0h19.4m9.7 0h19.4m9.7 0h19.4m9.72 0h19.4m9.7 0h19.42m9.7 0h19.4m9.7 0h19.42m9.7 0h19.4m9.7 0h19.42m9.7 0h19.4m9.72 0h9.7v10.24m0 10.24v20.48m0 10.23v20.47m0 10.24v20.48m0 10.24v20.48m0 10.23v20.48m0 10.25v20.47m0 10.24v20.47m0 10.24v20.48m0 10.24v20.46m0 10.24v20.47m0 10.24v20.5m0 10.22v20.48m0 10.24v20.47m0 10.25v10.24h-9.7m-9.7 0h-19.4m-9.72 0h-19.4m-9.7 0h-19.42m-9.7 0h-19.4m-9.7 0h-19.42m-9.7 0h-19.4m-9.7 0H150.5m-9.7 0h-19.4m-9.72 0H92.3m-9.7 0H63.2m-9.72 0h-19.4m-9.7 0h-9.7v-10.25m0-10.24v-20.46m0-10.24v-20.48m0-10.23v-20.5m0-10.23V316m0-10.24V285.3m0-10.25v-20.48m0-10.24v-20.47m0-10.24v-20.47m0-10.24v-20.47m0-10.23v-20.48m0-10.24V101m0-10.23V70.3m0-10.24V39.58m0-10.24V19.1h9.7" stroke="#000" stroke-width="2" fill="none"/><path d="M24 64.1c0-2.76 2.24-5 5-5h150c2.76 0 5 2.24 5 5v110c0 2.77-2.24 5-5 5H29c-2.76 0-5-2.23-5-5z" stroke="#000" stroke-width="2" fill="#fff"/><use xlink:href="#v" transform="matrix(1,0,0,1,32.00000000000006,67.10543130990416) translate(56.05 44.8)"/><use xlink:href="#b" transform="matrix(1,0,0,1,32.00000000000006,67.10543130990416) translate(49.55 66.4)"/><path d="M192 66.1c0-2.76 2.24-5 5-5h150c2.76 0 5 2.24 5 5v108c0 2.77-2.24 5-5 5H197c-2.76 0-5-2.23-5-5z" stroke="#000" stroke-width="2" fill="#666"/><use xlink:href="#w" transform="matrix(1,0,0,1,199.9999999999999,69.10543130990416) translate(-1.4000000000000057 43.8)"/><use xlink:href="#x" transform="matrix(1,0,0,1,199.9999999999999,69.10543130990416) translate(49.55 65.4)"/><path d="M104 24.1c0-2.76 2.24-5 5-5h190c2.76 0 5 2.24 5 5v27c0 2.77-2.24 5-5 5H109c-2.76 0-5-2.23-5-5z" stroke="#000" stroke-opacity="0" stroke-width="2" fill="#fff" fill-opacity="0"/><use xlink:href="#y" transform="matrix(1,0,0,1,109.00000000000006,24.105431309904162) translate(0 17.775)"/><use xlink:href="#z" transform="matrix(1,0,0,1,109.00000000000006,24.105431309904162) translate(72.80000000000001 17.775)"/><use xlink:href="#A" transform="matrix(1,0,0,1,109.00000000000006,24.105431309904162) translate(143.70000000000002 17.775)"/><path d="M111.58 274.63H65v-2h46.58zm156.92 0h-29.07v-2h29.07z"/><path d="M65.03 274.63H64v-2h1.03z"/><path d="M283.76 273.63l-14.26 4.64V269z" fill="#fff"/><path d="M287 273.63l-18.5 6v-12zm-16.5 3.26l10.03-3.27-10.03-3.26z"/><g><use xlink:href="#B" transform="matrix(1,0,0,1,175.49999999999997,263.230431309904) translate(0 13.866666666666669)"/></g><g><use xlink:href="#C" transform="matrix(1,0,0,1,111.57499999999996,262.830431309904) translate(0 14.4)"/></g><path d="M129.57 220.1H65v-2h64.57zm155.6 0h-63.75v-2h63.76z"/><path d="M65.03 220.1H64v-2h1.03zM287 219.1l-18.67 11.05-1.02-1.72 15.77-9.32-15.76-9.3 1.03-1.74z"/><g><use xlink:href="#B" transform="matrix(1,0,0,1,175.49999999999997,208.70543130990416) translate(0 13.866666666666669)"/></g><g><use xlink:href="#D" transform="matrix(1,0,0,1,129.57499999999996,208.30543130990415) translate(0 14.4)"/></g><defs><path d="M197 0v-115H63V0H30v-248h33v105h134v-105h34V0h-34" id="E"/><path d="M137-103V0h-34v-103L8-248h37l75 118 75-118h37" id="F"/><path d="M-5 72V49h209v23H-5" id="G"/><path d="M63-220v92h138v28H63V0H30v-248h175v28H63" id="H"/><path d="M100-194c63 0 86 42 84 106H49c0 40 14 67 53 68 26 1 43-12 49-29l28 8c-11 28-37 45-77 45C44 4 14-33 15-96c1-61 26-98 85-98zm52 81c6-60-76-77-97-28-3 7-6 17-6 28h103" id="I"/><path d="M141-36C126-15 110 5 73 4 37 3 15-17 15-53c-1-64 63-63 125-63 3-35-9-54-41-54-24 1-41 7-42 31l-33-3c5-37 33-52 76-52 45 0 72 20 72 64v82c-1 20 7 32 28 27v20c-31 9-61-2-59-35zM48-53c0 20 12 33 32 33 41-3 63-29 60-74-43 2-92-5-92 41" id="J"/><path d="M59-47c-2 24 18 29 38 22v24C64 9 27 4 27-40v-127H5v-23h24l9-43h21v43h35v23H59v120" id="K"/><path d="M84 4C-5 8 30-112 23-190h32v120c0 31 7 50 39 49 72-2 45-101 50-169h31l1 190h-30c-1-10 1-25-2-33-11 22-28 36-60 37" id="L"/><path d="M114-163C36-179 61-72 57 0H25l-1-190h30c1 12-1 29 2 39 6-27 23-49 58-41v29" id="M"/><path d="M135-143c-3-34-86-38-87 0 15 53 115 12 119 90S17 21 10-45l28-5c4 36 97 45 98 0-10-56-113-15-118-90-4-57 82-63 122-42 12 7 21 19 24 35" id="N"/><g id="a"><use transform="matrix(0.05,0,0,0.05,0,0)" xlink:href="#E"/><use transform="matrix(0.05,0,0,0.05,12.950000000000001,0)" xlink:href="#F"/><use transform="matrix(0.05,0,0,0.05,24.950000000000003,0)" xlink:href="#G"/><use transform="matrix(0.05,0,0,0.05,34.95,0)" xlink:href="#H"/><use transform="matrix(0.05,0,0,0.05,45.900000000000006,0)" xlink:href="#I"/><use transform="matrix(0.05,0,0,0.05,55.900000000000006,0)" xlink:href="#J"/><use transform="matrix(0.05,0,0,0.05,65.9,0)" xlink:href="#K"/><use transform="matrix(0.05,0,0,0.05,70.9,0)" xlink:href="#L"/><use transform="matrix(0.05,0,0,0.05,80.9,0)" xlink:href="#M"/><use transform="matrix(0.05,0,0,0.05,86.85000000000001,0)" xlink:href="#I"/><use transform="matrix(0.05,0,0,0.05,96.85000000000001,0)" xlink:href="#N"/></g><path d="M212-179c-10-28-35-45-73-45-59 0-87 40-87 99 0 60 29 101 89 101 43 0 62-24 78-52l27 14C228-24 195 4 139 4 59 4 22-46 18-125c-6-104 99-153 187-111 19 9 31 26 39 46" id="O"/><path d="M24 0v-261h32V0H24" id="P"/><g id="b"><use transform="matrix(0.05,0,0,0.05,0,0)" xlink:href="#O"/><use transform="matrix(0.05,0,0,0.05,12.950000000000001,0)" xlink:href="#P"/><use transform="matrix(0.05,0,0,0.05,16.900000000000002,0)" xlink:href="#J"/><use transform="matrix(0.05,0,0,0.05,26.900000000000002,0)" xlink:href="#N"/><use transform="matrix(0.05,0,0,0.05,35.900000000000006,0)" xlink:href="#N"/></g><path d="M177-190C167-65 218 103 67 71c-23-6-38-20-44-43l32-5c15 47 100 32 89-28v-30C133-14 115 1 83 1 29 1 15-40 15-95c0-56 16-97 71-98 29-1 48 16 59 35 1-10 0-23 2-32h30zM94-22c36 0 50-32 50-73 0-42-14-75-50-75-39 0-46 34-46 75s6 73 46 73" id="Q"/><path d="M100-194c62-1 85 37 85 99 1 63-27 99-86 99S16-35 15-95c0-66 28-99 85-99zM99-20c44 1 53-31 53-75 0-43-8-75-51-75s-53 32-53 75 10 74 51 75" id="R"/><path d="M33-154v-36h34v36H33zM33 0v-36h34V0H33" id="S"/><g id="c"><use transform="matrix(0.05,0,0,0.05,0,0)" xlink:href="#Q"/><use transform="matrix(0.05,0,0,0.05,10,0)" xlink:href="#I"/><use transform="matrix(0.05,0,0,0.05,20,0)" xlink:href="#R"/><use transform="matrix(0.05,0,0,0.05,30,0)" xlink:href="#S"/><use transform="matrix(0.05,0,0,0.05,35,0)" xlink:href="#H"/><use transform="matrix(0.05,0,0,0.05,45.95,0)" xlink:href="#I"/><use transform="matrix(0.05,0,0,0.05,55.95,0)" xlink:href="#J"/><use transform="matrix(0.05,0,0,0.05,65.95,0)" xlink:href="#K"/><use transform="matrix(0.05,0,0,0.05,70.95,0)" xlink:href="#L"/><use transform="matrix(0.05,0,0,0.05,80.95,0)" xlink:href="#M"/><use transform="matrix(0.05,0,0,0.05,86.9,0)" xlink:href="#I"/></g><path d="M233-177c-1 41-23 64-60 70L243 0h-38l-65-103H63V0H30v-248c88 3 205-21 203 71zM63-129c60-2 137 13 137-47 0-61-80-42-137-45v92" id="T"/><path d="M24-231v-30h32v30H24zM24 0v-190h32V0H24" id="U"/><path d="M108 0H70L1-190h34L89-25l56-165h34" id="V"/><path d="M117-194c89-4 53 116 60 194h-32v-121c0-31-8-49-39-48C34-167 62-67 57 0H25l-1-190h30c1 10-1 24 2 32 11-22 29-35 61-36" id="W"/><g id="d"><use transform="matrix(0.05,0,0,0.05,0,0)" xlink:href="#S"/><use transform="matrix(0.05,0,0,0.05,5,0)" xlink:href="#T"/><use transform="matrix(0.05,0,0,0.05,17.950000000000003,0)" xlink:href="#U"/><use transform="matrix(0.05,0,0,0.05,21.900000000000002,0)" xlink:href="#V"/><use transform="matrix(0.05,0,0,0.05,30.900000000000002,0)" xlink:href="#I"/><use transform="matrix(0.05,0,0,0.05,40.900000000000006,0)" xlink:href="#M"/><use transform="matrix(0.05,0,0,0.05,46.85000000000001,0)" xlink:href="#T"/><use transform="matrix(0.05,0,0,0.05,59.80000000000001,0)" xlink:href="#I"/><use transform="matrix(0.05,0,0,0.05,69.80000000000001,0)" xlink:href="#Q"/><use transform="matrix(0.05,0,0,0.05,79.80000000000001,0)" xlink:href="#U"/><use transform="matrix(0.05,0,0,0.05,83.75000000000001,0)" xlink:href="#R"/><use transform="matrix(0.05,0,0,0.05,93.75000000000001,0)" xlink:href="#W"/></g><path d="M30-248c118-7 216 8 213 122C240-48 200 0 122 0H30v-248zM63-27c89 8 146-16 146-99s-60-101-146-95v194" id="X"/><g id="e"><use transform="matrix(0.05,0,0,0.05,0,0)" xlink:href="#S"/><use transform="matrix(0.05,0,0,0.05,5,0)" xlink:href="#X"/><use transform="matrix(0.05,0,0,0.05,17.950000000000003,0)" xlink:href="#M"/><use transform="matrix(0.05,0,0,0.05,23.900000000000002,0)" xlink:href="#J"/><use transform="matrix(0.05,0,0,0.05,33.900000000000006,0)" xlink:href="#U"/><use transform="matrix(0.05,0,0,0.05,37.85000000000001,0)" xlink:href="#W"/><use transform="matrix(0.05,0,0,0.05,47.85000000000001,0)" xlink:href="#J"/><use transform="matrix(0.05,0,0,0.05,57.85,0)" xlink:href="#Q"/><use transform="matrix(0.05,0,0,0.05,67.85000000000001,0)" xlink:href="#I"/><use transform="matrix(0.05,0,0,0.05,77.85000000000001,0)" xlink:href="#X"/><use transform="matrix(0.05,0,0,0.05,90.80000000000001,0)" xlink:href="#U"/><use transform="matrix(0.05,0,0,0.05,94.75000000000001,0)" xlink:href="#V"/><use transform="matrix(0.05,0,0,0.05,103.75,0)" xlink:href="#U"/><use transform="matrix(0.05,0,0,0.05,107.7,0)" xlink:href="#N"/><use transform="matrix(0.05,0,0,0.05,116.7,0)" xlink:href="#U"/><use transform="matrix(0.05,0,0,0.05,120.65000000000003,0)" xlink:href="#R"/><use transform="matrix(0.05,0,0,0.05,130.65000000000003,0)" xlink:href="#W"/></g><path d="M96-169c-40 0-48 33-48 73s9 75 48 75c24 0 41-14 43-38l32 2c-6 37-31 61-74 61-59 0-76-41-82-99-10-93 101-131 147-64 4 7 5 14 7 22l-32 3c-4-21-16-35-41-35" id="Y"/><path d="M85-194c31 0 48 13 60 33l-1-100h32l1 261h-30c-2-10 0-23-3-31C134-8 116 4 85 4 32 4 16-35 15-94c0-66 23-100 70-100zm9 24c-40 0-46 34-46 75 0 40 6 74 45 74 42 0 51-32 51-76 0-42-9-74-50-73" id="Z"/><g id="f"><use transform="matrix(0.05,0,0,0.05,0,0)" xlink:href="#S"/><use transform="matrix(0.05,0,0,0.05,5,0)" xlink:href="#O"/><use transform="matrix(0.05,0,0,0.05,17.950000000000003,0)" xlink:href="#R"/><use transform="matrix(0.05,0,0,0.05,27.950000000000003,0)" xlink:href="#W"/><use transform="matrix(0.05,0,0,0.05,37.95,0)" xlink:href="#K"/><use transform="matrix(0.05,0,0,0.05,42.95,0)" xlink:href="#M"/><use transform="matrix(0.05,0,0,0.05,48.900000000000006,0)" xlink:href="#J"/><use transform="matrix(0.05,0,0,0.05,58.900000000000006,0)" xlink:href="#Y"/><use transform="matrix(0.05,0,0,0.05,67.9,0)" xlink:href="#K"/><use transform="matrix(0.05,0,0,0.05,72.9,0)" xlink:href="#I"/><use transform="matrix(0.05,0,0,0.05,82.9,0)" xlink:href="#Z"/></g><path d="M106-169C34-169 62-67 57 0H25v-261h32l-1 103c12-21 28-36 61-36 89 0 53 116 60 194h-32v-121c2-32-8-49-39-48" id="aa"/><path d="M210-169c-67 3-38 105-44 169h-31v-121c0-29-5-50-35-48C34-165 62-65 56 0H25l-1-190h30c1 10-1 24 2 32 10-44 99-50 107 0 11-21 27-35 58-36 85-2 47 119 55 194h-31v-121c0-29-5-49-35-48" id="ab"/><g id="g"><use transform="matrix(0.05,0,0,0.05,0,0)" xlink:href="#O"/><use transform="matrix(0.05,0,0,0.05,12.950000000000001,0)" xlink:href="#J"/><use transform="matrix(0.05,0,0,0.05,22.950000000000003,0)" xlink:href="#K"/><use transform="matrix(0.05,0,0,0.05,27.950000000000003,0)" xlink:href="#Y"/><use transform="matrix(0.05,0,0,0.05,36.95,0)" xlink:href="#aa"/><use transform="matrix(0.05,0,0,0.05,46.95,0)" xlink:href="#ab"/><use transform="matrix(0.05,0,0,0.05,61.900000000000006,0)" xlink:href="#I"/><use transform="matrix(0.05,0,0,0.05,71.9,0)" xlink:href="#W"/><use transform="matrix(0.05,0,0,0.05,81.9,0)" xlink:href="#K"/></g><path d="M143 4C61 4 22-44 18-125c-5-107 100-154 193-111 17 8 29 25 37 43l-32 9c-13-25-37-40-76-40-61 0-88 39-88 99 0 61 29 100 91 101 35 0 62-11 79-27v-45h-74v-28h105v86C228-13 192 4 143 4" id="ac"/><path d="M101-234c-31-9-42 10-38 44h38v23H63V0H32v-167H5v-23h27c-7-52 17-82 69-68v24" id="ad"/><path d="M115-194c53 0 69 39 70 98 0 66-23 100-70 100C84 3 66-7 56-30L54 0H23l1-261h32v101c10-23 28-34 59-34zm-8 174c40 0 45-34 45-75 0-40-5-75-45-74-42 0-51 32-51 76 0 43 10 73 51 73" id="ae"/><g id="h"><use transform="matrix(0.05,0,0,0.05,0,0)" xlink:href="#ac"/><use transform="matrix(0.05,0,0,0.05,14,0)" xlink:href="#I"/><use transform="matrix(0.05,0,0,0.05,24,0)" xlink:href="#R"/><use transform="matrix(0.05,0,0,0.05,34,0)" xlink:href="#ad"/><use transform="matrix(0.05,0,0,0.05,39,0)" xlink:href="#J"/><use transform="matrix(0.05,0,0,0.05,49,0)" xlink:href="#ae"/><use transform="matrix(0.05,0,0,0.05,59,0)" xlink:href="#M"/><use transform="matrix(0.05,0,0,0.05,64.95,0)" xlink:href="#U"/><use transform="matrix(0.05,0,0,0.05,68.9,0)" xlink:href="#Y"/></g><g id="i"><use transform="matrix(0.05,0,0,0.05,0,0)" xlink:href="#O"/><use transform="matrix(0.05,0,0,0.05,12.950000000000001,0)" xlink:href="#P"/><use transform="matrix(0.05,0,0,0.05,16.900000000000002,0)" xlink:href="#J"/><use transform="matrix(0.05,0,0,0.05,26.900000000000002,0)" xlink:href="#N"/><use transform="matrix(0.05,0,0,0.05,35.900000000000006,0)" xlink:href="#N"/></g><g id="j"><use transform="matrix(0.05,0,0,0.05,0,0)" xlink:href="#E"/><use transform="matrix(0.05,0,0,0.05,12.950000000000001,0)" xlink:href="#F"/><use transform="matrix(0.05,0,0,0.05,24.950000000000003,0)" xlink:href="#G"/><use transform="matrix(0.05,0,0,0.05,34.95,0)" xlink:href="#O"/><use transform="matrix(0.05,0,0,0.05,47.900000000000006,0)" xlink:href="#J"/><use transform="matrix(0.05,0,0,0.05,57.900000000000006,0)" xlink:href="#K"/><use transform="matrix(0.05,0,0,0.05,62.900000000000006,0)" xlink:href="#Y"/><use transform="matrix(0.05,0,0,0.05,71.9,0)" xlink:href="#aa"/><use transform="matrix(0.05,0,0,0.05,81.9,0)" xlink:href="#ab"/><use transform="matrix(0.05,0,0,0.05,96.85000000000001,0)" xlink:href="#I"/><use transform="matrix(0.05,0,0,0.05,106.85000000000001,0)" xlink:href="#W"/><use transform="matrix(0.05,0,0,0.05,116.85000000000001,0)" xlink:href="#K"/></g><g id="k"><use transform="matrix(0.05,0,0,0.05,0,0)" xlink:href="#E"/><use transform="matrix(0.05,0,0,0.05,12.950000000000001,0)" xlink:href="#F"/><use transform="matrix(0.05,0,0,0.05,24.950000000000003,0)" xlink:href="#G"/><use transform="matrix(0.05,0,0,0.05,34.95,0)" xlink:href="#O"/><use transform="matrix(0.05,0,0,0.05,47.900000000000006,0)" xlink:href="#J"/><use transform="matrix(0.05,0,0,0.05,57.900000000000006,0)" xlink:href="#K"/><use transform="matrix(0.05,0,0,0.05,62.900000000000006,0)" xlink:href="#Y"/><use transform="matrix(0.05,0,0,0.05,71.9,0)" xlink:href="#aa"/><use transform="matrix(0.05,0,0,0.05,81.9,0)" xlink:href="#ab"/><use transform="matrix(0.05,0,0,0.05,96.85000000000001,0)" xlink:href="#I"/><use transform="matrix(0.05,0,0,0.05,106.85000000000001,0)" xlink:href="#W"/><use transform="matrix(0.05,0,0,0.05,116.85000000000001,0)" xlink:href="#K"/></g><path d="M205 0l-28-72H64L36 0H1l101-248h38L239 0h-34zm-38-99l-47-123c-12 45-31 82-46 123h93" id="af"/><g id="l"><use transform="matrix(0.05,0,0,0.05,0,0)" xlink:href="#af"/><use transform="matrix(0.05,0,0,0.05,12,0)" xlink:href="#Q"/><use transform="matrix(0.05,0,0,0.05,22,0)" xlink:href="#Q"/><use transform="matrix(0.05,0,0,0.05,32,0)" xlink:href="#M"/><use transform="matrix(0.05,0,0,0.05,37.95,0)" xlink:href="#I"/><use transform="matrix(0.05,0,0,0.05,47.95,0)" xlink:href="#Q"/><use transform="matrix(0.05,0,0,0.05,57.95,0)" xlink:href="#J"/><use transform="matrix(0.05,0,0,0.05,67.95,0)" xlink:href="#K"/><use transform="matrix(0.05,0,0,0.05,72.95,0)" xlink:href="#I"/></g><path fill="#fff" d="M160-131c35 5 61 23 61 61C221 17 115-2 30 0v-248c76 3 177-17 177 60 0 33-19 50-47 57zm-97-11c50-1 110 9 110-42 0-47-63-36-110-37v79zm0 115c55-2 124 14 124-45 0-56-70-42-124-44v89" id="ag"/><path fill="#fff" d="M141-36C126-15 110 5 73 4 37 3 15-17 15-53c-1-64 63-63 125-63 3-35-9-54-41-54-24 1-41 7-42 31l-33-3c5-37 33-52 76-52 45 0 72 20 72 64v82c-1 20 7 32 28 27v20c-31 9-61-2-59-35zM48-53c0 20 12 33 32 33 41-3 63-29 60-74-43 2-92-5-92 41" id="ah"/><path fill="#fff" d="M135-143c-3-34-86-38-87 0 15 53 115 12 119 90S17 21 10-45l28-5c4 36 97 45 98 0-10-56-113-15-118-90-4-57 82-63 122-42 12 7 21 19 24 35" id="ai"/><path fill="#fff" d="M24-231v-30h32v30H24zM24 0v-190h32V0H24" id="aj"/><path fill="#fff" d="M117-194c89-4 53 116 60 194h-32v-121c0-31-8-49-39-48C34-167 62-67 57 0H25l-1-190h30c1 10-1 24 2 32 11-22 29-35 61-36" id="ak"/><g id="m"><use transform="matrix(0.05,0,0,0.05,0,0)" xlink:href="#ag"/><use transform="matrix(0.05,0,0,0.05,12,0)" xlink:href="#ah"/><use transform="matrix(0.05,0,0,0.05,22,0)" xlink:href="#ai"/><use transform="matrix(0.05,0,0,0.05,31,0)" xlink:href="#aj"/><use transform="matrix(0.05,0,0,0.05,34.95,0)" xlink:href="#ak"/></g><path fill="#fff" d="M185-189c-5-48-123-54-124 2 14 75 158 14 163 119 3 78-121 87-175 55-17-10-28-26-33-46l33-7c5 56 141 63 141-1 0-78-155-14-162-118-5-82 145-84 179-34 5 7 8 16 11 25" id="al"/><path fill="#fff" d="M100-194c63 0 86 42 84 106H49c0 40 14 67 53 68 26 1 43-12 49-29l28 8c-11 28-37 45-77 45C44 4 14-33 15-96c1-61 26-98 85-98zm52 81c6-60-76-77-97-28-3 7-6 17-6 28h103" id="am"/><path fill="#fff" d="M85-194c31 0 48 13 60 33l-1-100h32l1 261h-30c-2-10 0-23-3-31C134-8 116 4 85 4 32 4 16-35 15-94c0-66 23-100 70-100zm9 24c-40 0-46 34-46 75 0 40 6 74 45 74 42 0 51-32 51-76 0-42-9-74-50-73" id="an"/><path fill="#fff" d="M210-169c-67 3-38 105-44 169h-31v-121c0-29-5-50-35-48C34-165 62-65 56 0H25l-1-190h30c1 10-1 24 2 32 10-44 99-50 107 0 11-21 27-35 58-36 85-2 47 119 55 194h-31v-121c0-29-5-49-35-48" id="ao"/><path fill="#fff" d="M59-47c-2 24 18 29 38 22v24C64 9 27 4 27-40v-127H5v-23h24l9-43h21v43h35v23H59v120" id="ap"/><path fill="#fff" d="M114-163C36-179 61-72 57 0H25l-1-190h30c1 12-1 29 2 39 6-27 23-49 58-41v29" id="aq"/><path fill="#fff" d="M179-190L93 31C79 59 56 82 12 73V49c39 6 53-20 64-50L1-190h34L92-34l54-156h33" id="ar"/><g id="n"><use transform="matrix(0.05,0,0,0.05,0,0)" xlink:href="#al"/><use transform="matrix(0.05,0,0,0.05,12,0)" xlink:href="#am"/><use transform="matrix(0.05,0,0,0.05,22,0)" xlink:href="#an"/><use transform="matrix(0.05,0,0,0.05,32,0)" xlink:href="#aj"/><use transform="matrix(0.05,0,0,0.05,35.95,0)" xlink:href="#ao"/><use transform="matrix(0.05,0,0,0.05,50.900000000000006,0)" xlink:href="#am"/><use transform="matrix(0.05,0,0,0.05,60.900000000000006,0)" xlink:href="#ak"/><use transform="matrix(0.05,0,0,0.05,70.9,0)" xlink:href="#ap"/><use transform="matrix(0.05,0,0,0.05,75.9,0)" xlink:href="#ah"/><use transform="matrix(0.05,0,0,0.05,85.9,0)" xlink:href="#aq"/><use transform="matrix(0.05,0,0,0.05,91.85000000000001,0)" xlink:href="#ar"/></g><g id="o"><use transform="matrix(0.05,0,0,0.05,0,0)" xlink:href="#ag"/><use transform="matrix(0.05,0,0,0.05,12,0)" xlink:href="#ah"/><use transform="matrix(0.05,0,0,0.05,22,0)" xlink:href="#ai"/><use transform="matrix(0.05,0,0,0.05,31,0)" xlink:href="#aj"/><use transform="matrix(0.05,0,0,0.05,34.95,0)" xlink:href="#ak"/></g><path fill="#fff" d="M143 4C61 4 22-44 18-125c-5-107 100-154 193-111 17 8 29 25 37 43l-32 9c-13-25-37-40-76-40-61 0-88 39-88 99 0 61 29 100 91 101 35 0 62-11 79-27v-45h-74v-28h105v86C228-13 192 4 143 4" id="as"/><path fill="#fff" d="M100-194c62-1 85 37 85 99 1 63-27 99-86 99S16-35 15-95c0-66 28-99 85-99zM99-20c44 1 53-31 53-75 0-43-8-75-51-75s-53 32-53 75 10 74 51 75" id="at"/><path fill="#fff" d="M84 4C-5 8 30-112 23-190h32v120c0 31 7 50 39 49 72-2 45-101 50-169h31l1 190h-30c-1-10 1-25-2-33-11 22-28 36-60 37" id="au"/><path fill="#fff" d="M206 0h-36l-40-164L89 0H53L-1-190h32L70-26l43-164h34l41 164 42-164h31" id="av"/><g id="p"><use transform="matrix(0.05,0,0,0.05,0,0)" xlink:href="#as"/><use transform="matrix(0.05,0,0,0.05,14,0)" xlink:href="#aq"/><use transform="matrix(0.05,0,0,0.05,19.95,0)" xlink:href="#at"/><use transform="matrix(0.05,0,0,0.05,29.950000000000003,0)" xlink:href="#au"/><use transform="matrix(0.05,0,0,0.05,39.95,0)" xlink:href="#ak"/><use transform="matrix(0.05,0,0,0.05,49.95,0)" xlink:href="#an"/><use transform="matrix(0.05,0,0,0.05,59.95,0)" xlink:href="#av"/><use transform="matrix(0.05,0,0,0.05,72.9,0)" xlink:href="#ah"/><use transform="matrix(0.05,0,0,0.05,82.9,0)" xlink:href="#ap"/><use transform="matrix(0.05,0,0,0.05,87.9,0)" xlink:href="#am"/><use transform="matrix(0.05,0,0,0.05,97.9,0)" xlink:href="#aq"/></g><g id="q"><use transform="matrix(0.05,0,0,0.05,0,0)" xlink:href="#ag"/><use transform="matrix(0.05,0,0,0.05,12,0)" xlink:href="#ah"/><use transform="matrix(0.05,0,0,0.05,22,0)" xlink:href="#ai"/><use transform="matrix(0.05,0,0,0.05,31,0)" xlink:href="#aj"/><use transform="matrix(0.05,0,0,0.05,34.95,0)" xlink:href="#ak"/></g><path fill="#fff" d="M179 0l23-115H67L45 0H11l48-248h34L72-143h135l21-105h32L212 0h-33" id="aw"/><path fill="#fff" d="M198-190L69 30C53 58 25 83-20 72c4-11-1-27 19-22 33-1 43-29 59-52L20-190h32L79-34l84-156h35" id="ax"/><path fill="#fff" d="M133-28C103 26-5 8 13-77c13-62 24-115 90-117 29-1 46 15 56 35l19-102h32L160 0h-30zM45-64c-2 27 10 43 35 43 54-1 69-50 69-103 0-29-15-46-42-46-53-1-58 58-62 106" id="ay"/><path fill="#fff" d="M66-151c12-25 30-51 66-40l-6 26C45-176 58-65 38 0H6l36-190h30" id="az"/><path fill="#fff" d="M30-147c31-64 166-65 159 27C183-49 158 1 86 4 9 8 1-88 30-147zM88-20c53 0 68-48 68-100 0-31-11-51-44-50-52 1-68 46-68 97 0 32 13 53 44 53" id="aA"/><path fill="#fff" d="M103-194c29 0 47 14 56 36 2-11 5-23 8-32h30L160-5C157 61 82 97 21 62 9 55 4 45 1 30l28-7c7 42 83 31 92-3 4-16 9-38 13-55-13 20-29 36-62 36-40 0-60-25-60-64 0-71 23-131 91-131zm4 24c-53 0-58 54-61 104-2 27 10 44 36 44 49 0 65-50 67-102 1-29-15-46-42-46" id="aB"/><path fill="#fff" d="M111-194c62-3 86 47 72 106H45c-7 38 6 69 45 68 27-1 43-14 53-32l24 11C152-15 129 4 87 4 38 3 12-23 12-71c0-70 32-119 99-123zm44 81c14-66-71-72-95-28-4 8-8 17-11 28h106" id="aC"/><path fill="#fff" d="M6 0l50-261h32L37 0H6" id="aD"/><path fill="#fff" d="M50-231l6-30h32l-6 30H50zM6 0l37-190h31L37 0H6" id="aE"/><path fill="#fff" d="M44-68c0 29 11 47 38 47 30 0 42-19 51-41l28 9C148-21 126 4 82 4 31 4 10-29 12-85c3-77 74-140 146-93 12 8 15 23 18 40l-31 5c-1-22-13-36-36-36-52 0-65 49-65 101" id="aF"/><path fill="#fff" d="M165-48c-4 18 1 34 23 27l-3 20c-29 8-62 0-52-35h-2C116-14 99 4 63 4 30 4 8-16 8-49c0-68 71-67 138-67 10-26 0-56-31-54-26 1-42 9-47 31l-32-5c8-67 160-71 144 15-5 28-9 54-15 81zM42-50c3 52 80 24 89-6 7-12 7-24 11-38-47 1-103-4-100 44" id="aG"/><g id="r"><use transform="matrix(0.05,0,0,0.05,0,0)" xlink:href="#aw"/><use transform="matrix(0.05,0,0,0.05,12.950000000000001,0)" xlink:href="#ax"/><use transform="matrix(0.05,0,0,0.05,21.950000000000003,0)" xlink:href="#ay"/><use transform="matrix(0.05,0,0,0.05,31.950000000000003,0)" xlink:href="#az"/><use transform="matrix(0.05,0,0,0.05,37.900000000000006,0)" xlink:href="#aA"/><use transform="matrix(0.05,0,0,0.05,47.900000000000006,0)" xlink:href="#aB"/><use transform="matrix(0.05,0,0,0.05,57.900000000000006,0)" xlink:href="#aC"/><use transform="matrix(0.05,0,0,0.05,67.9,0)" xlink:href="#aA"/><use transform="matrix(0.05,0,0,0.05,77.9,0)" xlink:href="#aD"/><use transform="matrix(0.05,0,0,0.05,81.85000000000001,0)" xlink:href="#aA"/><use transform="matrix(0.05,0,0,0.05,91.85000000000001,0)" xlink:href="#aB"/><use transform="matrix(0.05,0,0,0.05,101.85000000000001,0)" xlink:href="#aE"/><use transform="matrix(0.05,0,0,0.05,105.80000000000001,0)" xlink:href="#aF"/><use transform="matrix(0.05,0,0,0.05,114.80000000000001,0)" xlink:href="#aG"/><use transform="matrix(0.05,0,0,0.05,124.80000000000001,0)" xlink:href="#aD"/></g><path fill="#fff" d="M219-77C219 17 104-2 11 0l48-248c73 2 169-15 169 57 0 38-24 54-60 60 29 5 51 21 51 54zm-26-111c0-44-62-31-105-33l-16 79c55 0 121 9 121-46zm-7 110c-1-49-69-36-119-38L50-27c61-1 137 12 136-51" id="aH"/><path fill="#fff" d="M55-144c13 50 104 24 104 88C159 21 15 23 1-39l26-10c6 40 102 42 102-4-13-50-104-23-104-87 0-71 143-71 148-8l-29 4c-5-35-85-37-89 0" id="aI"/><path fill="#fff" d="M67-158c22-48 132-52 116 29L158 0h-32l25-140c3-38-53-32-70-12C52-117 51-52 38 0H6l36-190h30" id="aJ"/><g id="s"><use transform="matrix(0.05,0,0,0.05,0,0)" xlink:href="#aH"/><use transform="matrix(0.05,0,0,0.05,12,0)" xlink:href="#aG"/><use transform="matrix(0.05,0,0,0.05,22,0)" xlink:href="#aI"/><use transform="matrix(0.05,0,0,0.05,31,0)" xlink:href="#aE"/><use transform="matrix(0.05,0,0,0.05,34.95,0)" xlink:href="#aJ"/></g><path fill="#fff" d="M24 0v-261h32V0H24" id="aK"/><path fill="#fff" d="M177-190C167-65 218 103 67 71c-23-6-38-20-44-43l32-5c15 47 100 32 89-28v-30C133-14 115 1 83 1 29 1 15-40 15-95c0-56 16-97 71-98 29-1 48 16 59 35 1-10 0-23 2-32h30zM94-22c36 0 50-32 50-73 0-42-14-75-50-75-39 0-46 34-46 75s6 73 46 73" id="aL"/><path fill="#fff" d="M96-169c-40 0-48 33-48 73s9 75 48 75c24 0 41-14 43-38l32 2c-6 37-31 61-74 61-59 0-76-41-82-99-10-93 101-131 147-64 4 7 5 14 7 22l-32 3c-4-21-16-35-41-35" id="aM"/><g id="t"><use transform="matrix(0.05,0,0,0.05,0,0)" xlink:href="#as"/><use transform="matrix(0.05,0,0,0.05,14,0)" xlink:href="#am"/><use transform="matrix(0.05,0,0,0.05,24,0)" xlink:href="#at"/><use transform="matrix(0.05,0,0,0.05,34,0)" xlink:href="#aK"/><use transform="matrix(0.05,0,0,0.05,37.95,0)" xlink:href="#at"/><use transform="matrix(0.05,0,0,0.05,47.95,0)" xlink:href="#aL"/><use transform="matrix(0.05,0,0,0.05,57.95,0)" xlink:href="#aj"/><use transform="matrix(0.05,0,0,0.05,61.900000000000006,0)" xlink:href="#aM"/><use transform="matrix(0.05,0,0,0.05,70.9,0)" xlink:href="#ah"/><use transform="matrix(0.05,0,0,0.05,80.9,0)" xlink:href="#aK"/></g><path fill="#fff" d="M63-220v92h138v28H63V0H30v-248h175v28H63" id="aN"/><g id="u"><use transform="matrix(0.05,0,0,0.05,0,0)" xlink:href="#aN"/><use transform="matrix(0.05,0,0,0.05,10.950000000000001,0)" xlink:href="#am"/><use transform="matrix(0.05,0,0,0.05,20.950000000000003,0)" xlink:href="#ah"/><use transform="matrix(0.05,0,0,0.05,30.950000000000003,0)" xlink:href="#ap"/><use transform="matrix(0.05,0,0,0.05,35.95,0)" xlink:href="#au"/><use transform="matrix(0.05,0,0,0.05,45.95,0)" xlink:href="#aq"/><use transform="matrix(0.05,0,0,0.05,51.900000000000006,0)" xlink:href="#am"/></g><path d="M206 0h-36l-40-164L89 0H53L-1-190h32L70-26l43-164h34l41 164 42-164h31" id="aO"/><g id="v"><use transform="matrix(0.05,0,0,0.05,0,0)" xlink:href="#R"/><use transform="matrix(0.05,0,0,0.05,10,0)" xlink:href="#aO"/><use transform="matrix(0.05,0,0,0.05,22.950000000000003,0)" xlink:href="#P"/><use transform="matrix(0.05,0,0,0.05,26.900000000000002,0)" xlink:href="#S"/></g><path fill="#fff" d="M205 0l-28-72H64L36 0H1l101-248h38L239 0h-34zm-38-99l-47-123c-12 45-31 82-46 123h93" id="aP"/><g id="w"><use transform="matrix(0.05,0,0,0.05,0,0)" xlink:href="#as"/><use transform="matrix(0.05,0,0,0.05,14,0)" xlink:href="#am"/><use transform="matrix(0.05,0,0,0.05,24,0)" xlink:href="#at"/><use transform="matrix(0.05,0,0,0.05,34,0)" xlink:href="#aP"/><use transform="matrix(0.05,0,0,0.05,46,0)" xlink:href="#an"/><use transform="matrix(0.05,0,0,0.05,56,0)" xlink:href="#ao"/><use transform="matrix(0.05,0,0,0.05,70.95,0)" xlink:href="#aj"/><use transform="matrix(0.05,0,0,0.05,74.9,0)" xlink:href="#ak"/><use transform="matrix(0.05,0,0,0.05,84.9,0)" xlink:href="#aN"/><use transform="matrix(0.05,0,0,0.05,95.85000000000001,0)" xlink:href="#am"/><use transform="matrix(0.05,0,0,0.05,105.85000000000001,0)" xlink:href="#ah"/><use transform="matrix(0.05,0,0,0.05,115.85000000000001,0)" xlink:href="#ap"/><use transform="matrix(0.05,0,0,0.05,120.85000000000001,0)" xlink:href="#au"/><use transform="matrix(0.05,0,0,0.05,130.85000000000002,0)" xlink:href="#aq"/><use transform="matrix(0.05,0,0,0.05,136.8,0)" xlink:href="#am"/></g><path fill="#fff" d="M212-179c-10-28-35-45-73-45-59 0-87 40-87 99 0 60 29 101 89 101 43 0 62-24 78-52l27 14C228-24 195 4 139 4 59 4 22-46 18-125c-6-104 99-153 187-111 19 9 31 26 39 46" id="aQ"/><g id="x"><use transform="matrix(0.05,0,0,0.05,0,0)" xlink:href="#aQ"/><use transform="matrix(0.05,0,0,0.05,12.950000000000001,0)" xlink:href="#aK"/><use transform="matrix(0.05,0,0,0.05,16.900000000000002,0)" xlink:href="#ah"/><use transform="matrix(0.05,0,0,0.05,26.900000000000002,0)" xlink:href="#ai"/><use transform="matrix(0.05,0,0,0.05,35.900000000000006,0)" xlink:href="#ai"/></g><g id="y"><use transform="matrix(0.05,0,0,0.05,0,0)" xlink:href="#X"/><use transform="matrix(0.05,0,0,0.05,12.950000000000001,0)" xlink:href="#U"/><use transform="matrix(0.05,0,0,0.05,16.900000000000002,0)" xlink:href="#J"/><use transform="matrix(0.05,0,0,0.05,26.900000000000002,0)" xlink:href="#Q"/><use transform="matrix(0.05,0,0,0.05,36.900000000000006,0)" xlink:href="#M"/><use transform="matrix(0.05,0,0,0.05,42.85000000000001,0)" xlink:href="#J"/><use transform="matrix(0.05,0,0,0.05,52.85,0)" xlink:href="#ab"/><path d="M-.9 1.25h74.6v1.32H-.9z"/></g><path d="M30 0v-248h187v28H63v79h144v27H63v87h162V0H30" id="aR"/><g id="z"><use transform="matrix(0.05,0,0,0.05,0,0)" xlink:href="#aR"/><use transform="matrix(0.05,0,0,0.05,12,0)" xlink:href="#P"/><use transform="matrix(0.05,0,0,0.05,15.949999999999998,0)" xlink:href="#I"/><use transform="matrix(0.05,0,0,0.05,25.950000000000003,0)" xlink:href="#ab"/><use transform="matrix(0.05,0,0,0.05,40.9,0)" xlink:href="#I"/><use transform="matrix(0.05,0,0,0.05,50.9,0)" xlink:href="#W"/><use transform="matrix(0.05,0,0,0.05,60.900000000000006,0)" xlink:href="#K"/><path d="M-.9 1.25h72.7v1.32H-.9z"/></g><path d="M194 0L95-120 63-95V0H30v-248h33v124l119-124h40L117-140 236 0h-42" id="aS"/><path d="M179-190L93 31C79 59 56 82 12 73V49c39 6 53-20 64-50L1-190h34L92-34l54-156h33" id="aT"/><g id="A"><use transform="matrix(0.05,0,0,0.05,0,0)" xlink:href="#aS"/><use transform="matrix(0.05,0,0,0.05,12,0)" xlink:href="#I"/><use transform="matrix(0.05,0,0,0.05,22,0)" xlink:href="#aT"/><path d="M-.9 1.25h32.8v1.32H-.9z"/></g><path d="M140-251c81 0 123 46 123 126C263-46 219 4 140 4 59 4 17-45 17-125s42-126 123-126zm0 227c63 0 89-41 89-101s-29-99-89-99c-61 0-89 39-89 99S79-25 140-24" id="aU"/><g id="C"><use transform="matrix(0.05,0,0,0.05,0,0)" xlink:href="#M"/><use transform="matrix(0.05,0,0,0.05,5.95,0)" xlink:href="#Z"/><use transform="matrix(0.05,0,0,0.05,15.949999999999998,0)" xlink:href="#ad"/><use transform="matrix(0.05,0,0,0.05,20.95,0)" xlink:href="#N"/><use transform="matrix(0.05,0,0,0.05,29.950000000000003,0)" xlink:href="#S"/><use transform="matrix(0.05,0,0,0.05,34.95,0)" xlink:href="#N"/><use transform="matrix(0.05,0,0,0.05,43.95,0)" xlink:href="#L"/><use transform="matrix(0.05,0,0,0.05,53.95,0)" xlink:href="#ae"/><use transform="matrix(0.05,0,0,0.05,63.95,0)" xlink:href="#O"/><use transform="matrix(0.05,0,0,0.05,76.9,0)" xlink:href="#P"/><use transform="matrix(0.05,0,0,0.05,80.85000000000001,0)" xlink:href="#J"/><use transform="matrix(0.05,0,0,0.05,90.85000000000001,0)" xlink:href="#N"/><use transform="matrix(0.05,0,0,0.05,99.85000000000001,0)" xlink:href="#N"/><use transform="matrix(0.05,0,0,0.05,108.85000000000001,0)" xlink:href="#aU"/><use transform="matrix(0.05,0,0,0.05,122.85000000000001,0)" xlink:href="#ad"/></g><path d="M115-194c55 1 70 41 70 98S169 2 115 4C84 4 66-9 55-30l1 105H24l-1-265h31l2 30c10-21 28-34 59-34zm-8 174c40 0 45-34 45-75s-6-73-45-74c-42 0-51 32-51 76 0 43 10 73 51 73" id="aV"/><g id="D"><use transform="matrix(0.05,0,0,0.05,0,0)" xlink:href="#M"/><use transform="matrix(0.05,0,0,0.05,5.95,0)" xlink:href="#Z"/><use transform="matrix(0.05,0,0,0.05,15.949999999999998,0)" xlink:href="#ad"/><use transform="matrix(0.05,0,0,0.05,20.95,0)" xlink:href="#S"/><use transform="matrix(0.05,0,0,0.05,25.950000000000003,0)" xlink:href="#aV"/><use transform="matrix(0.05,0,0,0.05,35.95,0)" xlink:href="#M"/><use transform="matrix(0.05,0,0,0.05,41.900000000000006,0)" xlink:href="#R"/><use transform="matrix(0.05,0,0,0.05,51.900000000000006,0)" xlink:href="#aV"/><use transform="matrix(0.05,0,0,0.05,61.900000000000006,0)" xlink:href="#I"/><use transform="matrix(0.05,0,0,0.05,71.9,0)" xlink:href="#M"/><use transform="matrix(0.05,0,0,0.05,77.85000000000001,0)" xlink:href="#K"/><use transform="matrix(0.05,0,0,0.05,82.85000000000001,0)" xlink:href="#aT"/></g></defs></g></svg>