<svg xmlns="http://www.w3.org/2000/svg" xmlns:xlink="http://www.w3.org/1999/xlink" xmlns:lucid="lucid" width="546.67" height="232.19"><g transform="translate(5.684341886080802e-14 -1.333333333333428)" lucid:page-tab-id="6tAOogShr0RX"><path d="M0 0h1870.4v1323.2H0z" fill="#fff"/><path d="M216.57 203.53H170v-2h46.57zm156.93 0h-29.07v-2h29.07z"/><path d="M170.03 203.53H169v-2h1.03z"/><path d="M388.76 202.53l-14.26 4.63v-9.27z" fill="#fff"/><path d="M392 202.53l-18.5 6v-12.02zm-16.5 3.25l10.03-3.25-10.03-3.26z"/><use xlink:href="#a" transform="matrix(1,0,0,1,280.4999999999999,192.12499999999986) translate(0 13.866666666666669)"/><use xlink:href="#b" transform="matrix(1,0,0,1,216.57499999999987,191.72499999999985) translate(0 14.4)"/><path d="M234.57 149H170v-2h64.57zm155.6 0h-63.75v-2h63.76z"/><path d="M170.03 149H169v-2h1.03zM392 148l-18.67 11.04-1.02-1.72 15.77-9.32-15.76-9.32 1.03-1.72z"/><use xlink:href="#a" transform="matrix(1,0,0,1,280.4999999999999,137.60000000000005) translate(0 13.866666666666669)"/><use xlink:href="#c" transform="matrix(1,0,0,1,234.57499999999987,137.20000000000005) translate(0 14.4)"/><path d="M36 21.33c-8.84 0-16 7.17-16 16v48c0 8.84 7.16 16 16 16h128c8.84 0 16-7.16 16-16v-48c0-8.83-7.16-16-16-16z" stroke="#000" stroke-width="2" fill="#666"/><use xlink:href="#d" transform="matrix(1,0,0,1,27.999999999999943,29.333333333333428) translate(36.55 14.4)"/><use xlink:href="#e" transform="matrix(1,0,0,1,27.999999999999943,29.333333333333428) translate(21.549999999999997 36)"/><use xlink:href="#f" transform="matrix(1,0,0,1,27.999999999999943,29.333333333333428) translate(97.45 36)"/><use xlink:href="#g" transform="matrix(1,0,0,1,27.999999999999943,29.333333333333428) translate(51.525 57.6)"/><path class="lucid-link lucid-hotspot lucid-overlay-hotspot" d="M36 21.33c-8.84 0-16 7.17-16 16v48c0 8.84 7.16 16 16 16h128c8.84 0 16-7.16 16-16v-48c0-8.83-7.16-16-16-16z" fill="none"/><path d="M382.67 21.33c-8.84 0-16 7.17-16 16v48c0 8.84 7.16 16 16 16h128c8.83 0 16-7.16 16-16v-48c0-8.83-7.17-16-16-16z" stroke="#000" stroke-width="2" fill="#fff"/><use xlink:href="#h" transform="matrix(1,0,0,1,374.6666666666666,29.333333333333428) translate(13.049999999999997 24.799999999999997)"/><use xlink:href="#i" transform="matrix(1,0,0,1,374.6666666666666,29.333333333333428) translate(63 24.799999999999997)"/><use xlink:href="#j" transform="matrix(1,0,0,1,374.6666666666666,29.333333333333428) translate(51.525 46.4)"/><path class="lucid-link lucid-hotspot lucid-overlay-hotspot" d="M382.67 21.33c-8.84 0-16 7.17-16 16v48c0 8.84 7.16 16 16 16h128c8.83 0 16-7.16 16-16v-48c0-8.83-7.17-16-16-16z" fill="none"/><path d="M209.33 21.33c-8.83 0-16 7.17-16 16v48c0 8.84 7.17 16 16 16h128c8.84 0 16-7.16 16-16v-48c0-8.83-7.16-16-16-16z" stroke="#000" stroke-width="2" fill="#ccc"/><use xlink:href="#k" transform="matrix(1,0,0,1,201.33333333333326,29.333333333333428) translate(36.55 14.4)"/><use xlink:href="#l" transform="matrix(1,0,0,1,201.33333333333326,29.333333333333428) translate(21.549999999999997 36)"/><use xlink:href="#m" transform="matrix(1,0,0,1,201.33333333333326,29.333333333333428) translate(97.45 36)"/><use xlink:href="#j" transform="matrix(1,0,0,1,201.33333333333326,29.333333333333428) translate(51.525 57.6)"/><path class="lucid-link lucid-hotspot lucid-overlay-hotspot" d="M209.33 21.33c-8.83 0-16 7.17-16 16v48c0 8.84 7.17 16 16 16h128c8.84 0 16-7.16 16-16v-48c0-8.83-7.16-16-16-16z" fill="none"/><defs><path d="M114-163C36-179 61-72 57 0H25l-1-190h30c1 12-1 29 2 39 6-27 23-49 58-41v29" id="n"/><path d="M85-194c31 0 48 13 60 33l-1-100h32l1 261h-30c-2-10 0-23-3-31C134-8 116 4 85 4 32 4 16-35 15-94c0-66 23-100 70-100zm9 24c-40 0-46 34-46 75 0 40 6 74 45 74 42 0 51-32 51-76 0-42-9-74-50-73" id="o"/><path d="M101-234c-31-9-42 10-38 44h38v23H63V0H32v-167H5v-23h27c-7-52 17-82 69-68v24" id="p"/><path d="M135-143c-3-34-86-38-87 0 15 53 115 12 119 90S17 21 10-45l28-5c4 36 97 45 98 0-10-56-113-15-118-90-4-57 82-63 122-42 12 7 21 19 24 35" id="q"/><path d="M33-154v-36h34v36H33zM33 0v-36h34V0H33" id="r"/><path d="M84 4C-5 8 30-112 23-190h32v120c0 31 7 50 39 49 72-2 45-101 50-169h31l1 190h-30c-1-10 1-25-2-33-11 22-28 36-60 37" id="s"/><path d="M115-194c53 0 69 39 70 98 0 66-23 100-70 100C84 3 66-7 56-30L54 0H23l1-261h32v101c10-23 28-34 59-34zm-8 174c40 0 45-34 45-75 0-40-5-75-45-74-42 0-51 32-51 76 0 43 10 73 51 73" id="t"/><path d="M212-179c-10-28-35-45-73-45-59 0-87 40-87 99 0 60 29 101 89 101 43 0 62-24 78-52l27 14C228-24 195 4 139 4 59 4 22-46 18-125c-6-104 99-153 187-111 19 9 31 26 39 46" id="u"/><path d="M24 0v-261h32V0H24" id="v"/><path d="M141-36C126-15 110 5 73 4 37 3 15-17 15-53c-1-64 63-63 125-63 3-35-9-54-41-54-24 1-41 7-42 31l-33-3c5-37 33-52 76-52 45 0 72 20 72 64v82c-1 20 7 32 28 27v20c-31 9-61-2-59-35zM48-53c0 20 12 33 32 33 41-3 63-29 60-74-43 2-92-5-92 41" id="w"/><path d="M140-251c81 0 123 46 123 126C263-46 219 4 140 4 59 4 17-45 17-125s42-126 123-126zm0 227c63 0 89-41 89-101s-29-99-89-99c-61 0-89 39-89 99S79-25 140-24" id="x"/><g id="b"><use transform="matrix(0.05,0,0,0.05,0,0)" xlink:href="#n"/><use transform="matrix(0.05,0,0,0.05,5.95,0)" xlink:href="#o"/><use transform="matrix(0.05,0,0,0.05,15.949999999999998,0)" xlink:href="#p"/><use transform="matrix(0.05,0,0,0.05,20.95,0)" xlink:href="#q"/><use transform="matrix(0.05,0,0,0.05,29.950000000000003,0)" xlink:href="#r"/><use transform="matrix(0.05,0,0,0.05,34.95,0)" xlink:href="#q"/><use transform="matrix(0.05,0,0,0.05,43.95,0)" xlink:href="#s"/><use transform="matrix(0.05,0,0,0.05,53.95,0)" xlink:href="#t"/><use transform="matrix(0.05,0,0,0.05,63.95,0)" xlink:href="#u"/><use transform="matrix(0.05,0,0,0.05,76.9,0)" xlink:href="#v"/><use transform="matrix(0.05,0,0,0.05,80.85000000000001,0)" xlink:href="#w"/><use transform="matrix(0.05,0,0,0.05,90.85000000000001,0)" xlink:href="#q"/><use transform="matrix(0.05,0,0,0.05,99.85000000000001,0)" xlink:href="#q"/><use transform="matrix(0.05,0,0,0.05,108.85000000000001,0)" xlink:href="#x"/><use transform="matrix(0.05,0,0,0.05,122.85000000000001,0)" xlink:href="#p"/></g><path d="M115-194c55 1 70 41 70 98S169 2 115 4C84 4 66-9 55-30l1 105H24l-1-265h31l2 30c10-21 28-34 59-34zm-8 174c40 0 45-34 45-75s-6-73-45-74c-42 0-51 32-51 76 0 43 10 73 51 73" id="y"/><path d="M100-194c62-1 85 37 85 99 1 63-27 99-86 99S16-35 15-95c0-66 28-99 85-99zM99-20c44 1 53-31 53-75 0-43-8-75-51-75s-53 32-53 75 10 74 51 75" id="z"/><path d="M100-194c63 0 86 42 84 106H49c0 40 14 67 53 68 26 1 43-12 49-29l28 8c-11 28-37 45-77 45C44 4 14-33 15-96c1-61 26-98 85-98zm52 81c6-60-76-77-97-28-3 7-6 17-6 28h103" id="A"/><path d="M59-47c-2 24 18 29 38 22v24C64 9 27 4 27-40v-127H5v-23h24l9-43h21v43h35v23H59v120" id="B"/><path d="M179-190L93 31C79 59 56 82 12 73V49c39 6 53-20 64-50L1-190h34L92-34l54-156h33" id="C"/><g id="c"><use transform="matrix(0.05,0,0,0.05,0,0)" xlink:href="#n"/><use transform="matrix(0.05,0,0,0.05,5.95,0)" xlink:href="#o"/><use transform="matrix(0.05,0,0,0.05,15.949999999999998,0)" xlink:href="#p"/><use transform="matrix(0.05,0,0,0.05,20.95,0)" xlink:href="#r"/><use transform="matrix(0.05,0,0,0.05,25.950000000000003,0)" xlink:href="#y"/><use transform="matrix(0.05,0,0,0.05,35.95,0)" xlink:href="#n"/><use transform="matrix(0.05,0,0,0.05,41.900000000000006,0)" xlink:href="#z"/><use transform="matrix(0.05,0,0,0.05,51.900000000000006,0)" xlink:href="#y"/><use transform="matrix(0.05,0,0,0.05,61.900000000000006,0)" xlink:href="#A"/><use transform="matrix(0.05,0,0,0.05,71.9,0)" xlink:href="#n"/><use transform="matrix(0.05,0,0,0.05,77.85000000000001,0)" xlink:href="#B"/><use transform="matrix(0.05,0,0,0.05,82.85000000000001,0)" xlink:href="#C"/></g><path fill="#fff" d="M143 4C61 4 22-44 18-125c-5-107 100-154 193-111 17 8 29 25 37 43l-32 9c-13-25-37-40-76-40-61 0-88 39-88 99 0 61 29 100 91 101 35 0 62-11 79-27v-45h-74v-28h105v86C228-13 192 4 143 4" id="D"/><path fill="#fff" d="M100-194c63 0 86 42 84 106H49c0 40 14 67 53 68 26 1 43-12 49-29l28 8c-11 28-37 45-77 45C44 4 14-33 15-96c1-61 26-98 85-98zm52 81c6-60-76-77-97-28-3 7-6 17-6 28h103" id="E"/><path fill="#fff" d="M100-194c62-1 85 37 85 99 1 63-27 99-86 99S16-35 15-95c0-66 28-99 85-99zM99-20c44 1 53-31 53-75 0-43-8-75-51-75s-53 32-53 75 10 74 51 75" id="F"/><path fill="#fff" d="M24 0v-261h32V0H24" id="G"/><path fill="#fff" d="M177-190C167-65 218 103 67 71c-23-6-38-20-44-43l32-5c15 47 100 32 89-28v-30C133-14 115 1 83 1 29 1 15-40 15-95c0-56 16-97 71-98 29-1 48 16 59 35 1-10 0-23 2-32h30zM94-22c36 0 50-32 50-73 0-42-14-75-50-75-39 0-46 34-46 75s6 73 46 73" id="H"/><path fill="#fff" d="M24-231v-30h32v30H24zM24 0v-190h32V0H24" id="I"/><path fill="#fff" d="M96-169c-40 0-48 33-48 73s9 75 48 75c24 0 41-14 43-38l32 2c-6 37-31 61-74 61-59 0-76-41-82-99-10-93 101-131 147-64 4 7 5 14 7 22l-32 3c-4-21-16-35-41-35" id="J"/><g id="d"><use transform="matrix(0.05,0,0,0.05,0,0)" xlink:href="#D"/><use transform="matrix(0.05,0,0,0.05,14,0)" xlink:href="#E"/><use transform="matrix(0.05,0,0,0.05,24,0)" xlink:href="#F"/><use transform="matrix(0.05,0,0,0.05,34,0)" xlink:href="#G"/><use transform="matrix(0.05,0,0,0.05,37.95,0)" xlink:href="#F"/><use transform="matrix(0.05,0,0,0.05,47.95,0)" xlink:href="#H"/><use transform="matrix(0.05,0,0,0.05,57.95,0)" xlink:href="#I"/><use transform="matrix(0.05,0,0,0.05,61.900000000000006,0)" xlink:href="#J"/></g><path fill="#fff" d="M63-220v92h138v28H63V0H30v-248h175v28H63" id="K"/><path fill="#fff" d="M141-36C126-15 110 5 73 4 37 3 15-17 15-53c-1-64 63-63 125-63 3-35-9-54-41-54-24 1-41 7-42 31l-33-3c5-37 33-52 76-52 45 0 72 20 72 64v82c-1 20 7 32 28 27v20c-31 9-61-2-59-35zM48-53c0 20 12 33 32 33 41-3 63-29 60-74-43 2-92-5-92 41" id="L"/><path fill="#fff" d="M59-47c-2 24 18 29 38 22v24C64 9 27 4 27-40v-127H5v-23h24l9-43h21v43h35v23H59v120" id="M"/><path fill="#fff" d="M84 4C-5 8 30-112 23-190h32v120c0 31 7 50 39 49 72-2 45-101 50-169h31l1 190h-30c-1-10 1-25-2-33-11 22-28 36-60 37" id="N"/><path fill="#fff" d="M114-163C36-179 61-72 57 0H25l-1-190h30c1 12-1 29 2 39 6-27 23-49 58-41v29" id="O"/><path fill="#fff" d="M135-143c-3-34-86-38-87 0 15 53 115 12 119 90S17 21 10-45l28-5c4 36 97 45 98 0-10-56-113-15-118-90-4-57 82-63 122-42 12 7 21 19 24 35" id="P"/><g id="e"><use transform="matrix(0.05,0,0,0.05,0,0)" xlink:href="#K"/><use transform="matrix(0.05,0,0,0.05,10.950000000000001,0)" xlink:href="#E"/><use transform="matrix(0.05,0,0,0.05,20.950000000000003,0)" xlink:href="#L"/><use transform="matrix(0.05,0,0,0.05,30.950000000000003,0)" xlink:href="#M"/><use transform="matrix(0.05,0,0,0.05,35.95,0)" xlink:href="#N"/><use transform="matrix(0.05,0,0,0.05,45.95,0)" xlink:href="#O"/><use transform="matrix(0.05,0,0,0.05,51.900000000000006,0)" xlink:href="#E"/><use transform="matrix(0.05,0,0,0.05,61.900000000000006,0)" xlink:href="#P"/></g><path fill="#fff" d="M117-194c89-4 53 116 60 194h-32v-121c0-31-8-49-39-48C34-167 62-67 57 0H25l-1-190h30c1 10-1 24 2 32 11-22 29-35 61-36" id="Q"/><g id="f"><use transform="matrix(0.05,0,0,0.05,0,0)" xlink:href="#F"/><use transform="matrix(0.05,0,0,0.05,10,0)" xlink:href="#Q"/><use transform="matrix(0.05,0,0,0.05,20,0)" xlink:href="#M"/></g><g id="g"><use transform="matrix(0.05,0,0,0.05,0,0)" xlink:href="#J"/><use transform="matrix(0.05,0,0,0.05,9,0)" xlink:href="#G"/><use transform="matrix(0.05,0,0,0.05,12.949999999999998,0)" xlink:href="#L"/><use transform="matrix(0.05,0,0,0.05,22.95,0)" xlink:href="#P"/><use transform="matrix(0.05,0,0,0.05,31.950000000000003,0)" xlink:href="#P"/></g><path d="M106-169C34-169 62-67 57 0H25v-261h32l-1 103c12-21 28-36 61-36 89 0 53 116 60 194h-32v-121c2-32-8-49-39-48" id="R"/><g id="h"><use transform="matrix(0.05,0,0,0.05,0,0)" xlink:href="#x"/><use transform="matrix(0.05,0,0,0.05,14,0)" xlink:href="#B"/><use transform="matrix(0.05,0,0,0.05,19,0)" xlink:href="#R"/><use transform="matrix(0.05,0,0,0.05,29,0)" xlink:href="#A"/><use transform="matrix(0.05,0,0,0.05,39,0)" xlink:href="#n"/></g><path d="M117-194c89-4 53 116 60 194h-32v-121c0-31-8-49-39-48C34-167 62-67 57 0H25l-1-190h30c1 10-1 24 2 32 11-22 29-35 61-36" id="S"/><path d="M177-190C167-65 218 103 67 71c-23-6-38-20-44-43l32-5c15 47 100 32 89-28v-30C133-14 115 1 83 1 29 1 15-40 15-95c0-56 16-97 71-98 29-1 48 16 59 35 1-10 0-23 2-32h30zM94-22c36 0 50-32 50-73 0-42-14-75-50-75-39 0-46 34-46 75s6 73 46 73" id="T"/><g id="i"><use transform="matrix(0.05,0,0,0.05,0,0)" xlink:href="#z"/><use transform="matrix(0.05,0,0,0.05,10,0)" xlink:href="#S"/><use transform="matrix(0.05,0,0,0.05,20,0)" xlink:href="#B"/><use transform="matrix(0.05,0,0,0.05,25,0)" xlink:href="#z"/><use transform="matrix(0.05,0,0,0.05,35,0)" xlink:href="#v"/><use transform="matrix(0.05,0,0,0.05,38.95,0)" xlink:href="#z"/><use transform="matrix(0.05,0,0,0.05,48.95,0)" xlink:href="#T"/><use transform="matrix(0.05,0,0,0.05,58.95,0)" xlink:href="#C"/></g><path d="M96-169c-40 0-48 33-48 73s9 75 48 75c24 0 41-14 43-38l32 2c-6 37-31 61-74 61-59 0-76-41-82-99-10-93 101-131 147-64 4 7 5 14 7 22l-32 3c-4-21-16-35-41-35" id="U"/><g id="j"><use transform="matrix(0.05,0,0,0.05,0,0)" xlink:href="#U"/><use transform="matrix(0.05,0,0,0.05,9,0)" xlink:href="#v"/><use transform="matrix(0.05,0,0,0.05,12.949999999999998,0)" xlink:href="#w"/><use transform="matrix(0.05,0,0,0.05,22.95,0)" xlink:href="#q"/><use transform="matrix(0.05,0,0,0.05,31.950000000000003,0)" xlink:href="#q"/></g><path d="M143 4C61 4 22-44 18-125c-5-107 100-154 193-111 17 8 29 25 37 43l-32 9c-13-25-37-40-76-40-61 0-88 39-88 99 0 61 29 100 91 101 35 0 62-11 79-27v-45h-74v-28h105v86C228-13 192 4 143 4" id="V"/><path d="M24-231v-30h32v30H24zM24 0v-190h32V0H24" id="W"/><g id="k"><use transform="matrix(0.05,0,0,0.05,0,0)" xlink:href="#V"/><use transform="matrix(0.05,0,0,0.05,14,0)" xlink:href="#A"/><use transform="matrix(0.05,0,0,0.05,24,0)" xlink:href="#z"/><use transform="matrix(0.05,0,0,0.05,34,0)" xlink:href="#v"/><use transform="matrix(0.05,0,0,0.05,37.95,0)" xlink:href="#z"/><use transform="matrix(0.05,0,0,0.05,47.95,0)" xlink:href="#T"/><use transform="matrix(0.05,0,0,0.05,57.95,0)" xlink:href="#W"/><use transform="matrix(0.05,0,0,0.05,61.900000000000006,0)" xlink:href="#U"/></g><path d="M63-220v92h138v28H63V0H30v-248h175v28H63" id="X"/><g id="l"><use transform="matrix(0.05,0,0,0.05,0,0)" xlink:href="#X"/><use transform="matrix(0.05,0,0,0.05,10.950000000000001,0)" xlink:href="#A"/><use transform="matrix(0.05,0,0,0.05,20.950000000000003,0)" xlink:href="#w"/><use transform="matrix(0.05,0,0,0.05,30.950000000000003,0)" xlink:href="#B"/><use transform="matrix(0.05,0,0,0.05,35.95,0)" xlink:href="#s"/><use transform="matrix(0.05,0,0,0.05,45.95,0)" xlink:href="#n"/><use transform="matrix(0.05,0,0,0.05,51.900000000000006,0)" xlink:href="#A"/><use transform="matrix(0.05,0,0,0.05,61.900000000000006,0)" xlink:href="#q"/></g><g id="m"><use transform="matrix(0.05,0,0,0.05,0,0)" xlink:href="#z"/><use transform="matrix(0.05,0,0,0.05,10,0)" xlink:href="#S"/><use transform="matrix(0.05,0,0,0.05,20,0)" xlink:href="#B"/></g></defs></g></svg>