<svg xmlns="http://www.w3.org/2000/svg" xmlns:xlink="http://www.w3.org/1999/xlink" xmlns:lucid="lucid" width="297.33" height="810.67"><g transform="translate(-17.333333333294533 -6.666666666627833)" lucid:page-tab-id="ceAODP_Bu6YC"><path d="M0 0h1870.4v1323.2H0z" fill="#fff"/><a xlink:href="../geofeatures.html#geologicfeature" target="_top"><path d="M53.33 26.67c-8.83 0-16 7.16-16 16v48c0 8.83 7.17 16 16 16h128c8.84 0 16-7.17 16-16v-48c0-8.84-7.16-16-16-16z" stroke="#000" stroke-width="2" fill="#ccc"/><use xlink:href="#a" transform="matrix(1,0,0,1,45.33333333329453,34.66666666662783) translate(46.025 24.799999999999997)"/><use xlink:href="#b" transform="matrix(1,0,0,1,45.33333333329453,34.66666666662783) translate(5.599999999999994 46.4)"/><path class="lucid-link lucid-hotspot lucid-overlay-hotspot" d="M53.33 26.67c-8.83 0-16 7.16-16 16v48c0 8.83 7.17 16 16 16h128c8.84 0 16-7.17 16-16v-48c0-8.84-7.16-16-16-16z" fill="none"/></a><a xlink:href="../geofeatures.html#georesourceaccumulation" target="_top"><path d="M150.67 125.33c-8.84 0-16 7.17-16 16v48c0 8.84 7.16 16 16 16h128c8.83 0 16-7.16 16-16v-48c0-8.83-7.17-16-16-16z" stroke="#000" stroke-width="2" fill="#666"/><use xlink:href="#c" transform="matrix(1,0,0,1,142.66666666662792,133.33333333329452) translate(22.049999999999997 24.799999999999997)"/><use xlink:href="#d" transform="matrix(1,0,0,1,142.66666666662792,133.33333333329452) translate(19.074999999999996 46.4)"/><path class="lucid-link lucid-hotspot lucid-overlay-hotspot" d="M150.67 125.33c-8.84 0-16 7.17-16 16v48c0 8.84 7.16 16 16 16h128c8.83 0 16-7.16 16-16v-48c0-8.83-7.17-16-16-16z" fill="none"/></a><a xlink:href="../geofeatures.html#structuralfeature" target="_top"><path d="M150.67 224c-8.84 0-16 7.16-16 16v48c0 8.84 7.16 16 16 16h128c8.83 0 16-7.16 16-16v-48c0-8.84-7.17-16-16-16z" stroke="#000" stroke-width="2" fill="#666"/><use xlink:href="#e" transform="matrix(1,0,0,1,142.66666666662792,231.99999999996123) translate(35.074999999999996 24.799999999999997)"/><use xlink:href="#f" transform="matrix(1,0,0,1,142.66666666662792,231.99999999996123) translate(44.025 46.4)"/><path class="lucid-link lucid-hotspot lucid-overlay-hotspot" d="M150.67 224c-8.84 0-16 7.16-16 16v48c0 8.84 7.16 16 16 16h128c8.83 0 16-7.16 16-16v-48c0-8.84-7.17-16-16-16z" fill="none"/></a><a xlink:href="../geofeatures.html#lithodemicfeature" target="_top"><path d="M150.67 322.67c-8.84 0-16 7.16-16 16v48c0 8.83 7.16 16 16 16h128c8.83 0 16-7.17 16-16v-48c0-8.84-7.17-16-16-16z" stroke="#000" stroke-width="2" fill="#666"/><use xlink:href="#g" transform="matrix(1,0,0,1,142.66666666662792,330.66666666662786) translate(31.6 24.799999999999997)"/><use xlink:href="#f" transform="matrix(1,0,0,1,142.66666666662792,330.66666666662786) translate(44.025 46.4)"/><path class="lucid-link lucid-hotspot lucid-overlay-hotspot" d="M150.67 322.67c-8.84 0-16 7.16-16 16v48c0 8.83 7.16 16 16 16h128c8.83 0 16-7.17 16-16v-48c0-8.84-7.17-16-16-16z" fill="none"/></a><a xlink:href="../geofeatures.html#geophysicalfeature" target="_top"><path d="M150.67 421.33c-8.84 0-16 7.17-16 16v48c0 8.84 7.16 16 16 16h128c8.83 0 16-7.16 16-16v-48c0-8.83-7.17-16-16-16z" stroke="#000" stroke-width="2" fill="#666"/><use xlink:href="#h" transform="matrix(1,0,0,1,142.66666666662792,429.3333333332945) translate(24.549999999999997 24.799999999999997)"/><use xlink:href="#i" transform="matrix(1,0,0,1,142.66666666662792,429.3333333332945) translate(44.025 46.4)"/><path class="lucid-link lucid-hotspot lucid-overlay-hotspot" d="M150.67 421.33c-8.84 0-16 7.17-16 16v48c0 8.84 7.16 16 16 16h128c8.83 0 16-7.16 16-16v-48c0-8.83-7.17-16-16-16z" fill="none"/></a><a xlink:href="../geofeatures.html#geologicallysignificantsite" target="_top"><path d="M150.67 520c-8.84 0-16 7.16-16 16v48c0 8.84 7.16 16 16 16h128c8.83 0 16-7.16 16-16v-48c0-8.84-7.17-16-16-16z" stroke="#000" stroke-width="2" fill="#666"/><use xlink:href="#j" transform="matrix(1,0,0,1,142.66666666662792,527.9999999999611) translate(25.099999999999994 24.799999999999997)"/><use xlink:href="#k" transform="matrix(1,0,0,1,142.66666666662792,527.9999999999611) translate(15.599999999999994 46.4)"/><use xlink:href="#l" transform="matrix(1,0,0,1,142.66666666662792,527.9999999999611) translate(100.45 46.4)"/><path class="lucid-link lucid-hotspot lucid-overlay-hotspot" d="M150.67 520c-8.84 0-16 7.16-16 16v48c0 8.84 7.16 16 16 16h128c8.83 0 16-7.16 16-16v-48c0-8.84-7.17-16-16-16z" fill="none"/></a><a xlink:href="../geofeatures.html#tectonicfeature" target="_top"><path d="M150.67 618.67c-8.84 0-16 7.16-16 16v48c0 8.83 7.16 16 16 16h128c8.83 0 16-7.17 16-16v-48c0-8.84-7.17-16-16-16z" stroke="#000" stroke-width="2" fill="#666"/><use xlink:href="#m" transform="matrix(1,0,0,1,142.66666666662792,626.6666666666277) translate(41.025 24.799999999999997)"/><use xlink:href="#f" transform="matrix(1,0,0,1,142.66666666662792,626.6666666666277) translate(44.025 46.4)"/><path class="lucid-link lucid-hotspot lucid-overlay-hotspot" d="M150.67 618.67c-8.84 0-16 7.16-16 16v48c0 8.83 7.16 16 16 16h128c8.83 0 16-7.17 16-16v-48c0-8.84-7.17-16-16-16z" fill="none"/></a><a xlink:href="../geofeatures.html#stratigraphicfeature" target="_top"><path d="M150.67 717.33c-8.84 0-16 7.17-16 16v48c0 8.84 7.16 16 16 16h128c8.83 0 16-7.16 16-16v-48c0-8.83-7.17-16-16-16z" stroke="#000" stroke-width="2" fill="#666"/><use xlink:href="#n" transform="matrix(1,0,0,1,142.66666666662792,725.3333333332944) translate(23.099999999999994 24.799999999999997)"/><use xlink:href="#i" transform="matrix(1,0,0,1,142.66666666662792,725.3333333332944) translate(44.025 46.4)"/><path class="lucid-link lucid-hotspot lucid-overlay-hotspot" d="M150.67 717.33c-8.84 0-16 7.17-16 16v48c0 8.84 7.16 16 16 16h128c8.83 0 16-7.16 16-16v-48c0-8.83-7.17-16-16-16z" fill="none"/></a><path d="M132.67 165.33h-15.34v-39.16" stroke="#000" stroke-width="2" fill="none"/><path d="M133.67 166.33h-1.03v-2h1.03z"/><path d="M117.33 110.9l4.64 14.27h-9.27z" stroke="#000" stroke-width="2" fill="#fff"/><path d="M132.67 264h-15.34V126.17" stroke="#000" stroke-width="2" fill="none"/><path d="M133.67 265h-1.03v-2h1.03z"/><path d="M117.33 110.9l4.64 14.27h-9.27z" stroke="#000" stroke-width="2" fill="#fff"/><path d="M132.67 362.67h-15.34v-236.5" stroke="#000" stroke-width="2" fill="none"/><path d="M133.67 363.67h-1.03v-2h1.03z"/><path d="M117.33 110.9l4.64 14.27h-9.27z" stroke="#000" stroke-width="2" fill="#fff"/><path d="M132.67 461.33h-15.34V126.17" stroke="#000" stroke-width="2" fill="none"/><path d="M133.67 462.33h-1.03v-2h1.03z"/><path d="M117.33 110.9l4.64 14.27h-9.27z" stroke="#000" stroke-width="2" fill="#fff"/><path d="M132.67 560h-15.34V126.17" stroke="#000" stroke-width="2" fill="none"/><path d="M133.67 561h-1.03v-2h1.03z"/><path d="M117.33 110.9l4.64 14.27h-9.27z" stroke="#000" stroke-width="2" fill="#fff"/><path d="M132.67 658.67h-15.34v-532.5" stroke="#000" stroke-width="2" fill="none"/><path d="M133.67 659.67h-1.03v-2h1.03z"/><path d="M117.33 110.9l4.64 14.27h-9.27z" stroke="#000" stroke-width="2" fill="#fff"/><path d="M132.67 757.33h-15.34V126.17" stroke="#000" stroke-width="2" fill="none"/><path d="M133.67 758.33h-1.03v-2h1.03z"/><path d="M117.33 110.9l4.64 14.27h-9.27z" stroke="#000" stroke-width="2" fill="#fff"/><defs><path d="M135-143c-3-34-86-38-87 0 15 53 115 12 119 90S17 21 10-45l28-5c4 36 97 45 98 0-10-56-113-15-118-90-4-57 82-63 122-42 12 7 21 19 24 35" id="o"/><path d="M206 0h-36l-40-164L89 0H53L-1-190h32L70-26l43-164h34l41 164 42-164h31" id="p"/><path d="M100-194c63 0 86 42 84 106H49c0 40 14 67 53 68 26 1 43-12 49-29l28 8c-11 28-37 45-77 45C44 4 14-33 15-96c1-61 26-98 85-98zm52 81c6-60-76-77-97-28-3 7-6 17-6 28h103" id="q"/><path d="M59-47c-2 24 18 29 38 22v24C64 9 27 4 27-40v-127H5v-23h24l9-43h21v43h35v23H59v120" id="r"/><path d="M33-154v-36h34v36H33zM33 0v-36h34V0H33" id="s"/><g id="a"><use transform="matrix(0.05,0,0,0.05,0,0)" xlink:href="#o"/><use transform="matrix(0.05,0,0,0.05,9,0)" xlink:href="#p"/><use transform="matrix(0.05,0,0,0.05,21.950000000000003,0)" xlink:href="#q"/><use transform="matrix(0.05,0,0,0.05,31.950000000000003,0)" xlink:href="#q"/><use transform="matrix(0.05,0,0,0.05,41.95,0)" xlink:href="#r"/><use transform="matrix(0.05,0,0,0.05,46.95,0)" xlink:href="#s"/></g><path d="M143 4C61 4 22-44 18-125c-5-107 100-154 193-111 17 8 29 25 37 43l-32 9c-13-25-37-40-76-40-61 0-88 39-88 99 0 61 29 100 91 101 35 0 62-11 79-27v-45h-74v-28h105v86C228-13 192 4 143 4" id="t"/><path d="M100-194c62-1 85 37 85 99 1 63-27 99-86 99S16-35 15-95c0-66 28-99 85-99zM99-20c44 1 53-31 53-75 0-43-8-75-51-75s-53 32-53 75 10 74 51 75" id="u"/><path d="M24 0v-261h32V0H24" id="v"/><path d="M177-190C167-65 218 103 67 71c-23-6-38-20-44-43l32-5c15 47 100 32 89-28v-30C133-14 115 1 83 1 29 1 15-40 15-95c0-56 16-97 71-98 29-1 48 16 59 35 1-10 0-23 2-32h30zM94-22c36 0 50-32 50-73 0-42-14-75-50-75-39 0-46 34-46 75s6 73 46 73" id="w"/><path d="M24-231v-30h32v30H24zM24 0v-190h32V0H24" id="x"/><path d="M96-169c-40 0-48 33-48 73s9 75 48 75c24 0 41-14 43-38l32 2c-6 37-31 61-74 61-59 0-76-41-82-99-10-93 101-131 147-64 4 7 5 14 7 22l-32 3c-4-21-16-35-41-35" id="y"/><path d="M63-220v92h138v28H63V0H30v-248h175v28H63" id="z"/><path d="M141-36C126-15 110 5 73 4 37 3 15-17 15-53c-1-64 63-63 125-63 3-35-9-54-41-54-24 1-41 7-42 31l-33-3c5-37 33-52 76-52 45 0 72 20 72 64v82c-1 20 7 32 28 27v20c-31 9-61-2-59-35zM48-53c0 20 12 33 32 33 41-3 63-29 60-74-43 2-92-5-92 41" id="A"/><path d="M84 4C-5 8 30-112 23-190h32v120c0 31 7 50 39 49 72-2 45-101 50-169h31l1 190h-30c-1-10 1-25-2-33-11 22-28 36-60 37" id="B"/><path d="M114-163C36-179 61-72 57 0H25l-1-190h30c1 12-1 29 2 39 6-27 23-49 58-41v29" id="C"/><g id="b"><use transform="matrix(0.05,0,0,0.05,0,0)" xlink:href="#t"/><use transform="matrix(0.05,0,0,0.05,14,0)" xlink:href="#q"/><use transform="matrix(0.05,0,0,0.05,24,0)" xlink:href="#u"/><use transform="matrix(0.05,0,0,0.05,34,0)" xlink:href="#v"/><use transform="matrix(0.05,0,0,0.05,37.95,0)" xlink:href="#u"/><use transform="matrix(0.05,0,0,0.05,47.95,0)" xlink:href="#w"/><use transform="matrix(0.05,0,0,0.05,57.95,0)" xlink:href="#x"/><use transform="matrix(0.05,0,0,0.05,61.900000000000006,0)" xlink:href="#y"/><use transform="matrix(0.05,0,0,0.05,70.9,0)" xlink:href="#z"/><use transform="matrix(0.05,0,0,0.05,81.85000000000001,0)" xlink:href="#q"/><use transform="matrix(0.05,0,0,0.05,91.85000000000001,0)" xlink:href="#A"/><use transform="matrix(0.05,0,0,0.05,101.85000000000001,0)" xlink:href="#r"/><use transform="matrix(0.05,0,0,0.05,106.85000000000001,0)" xlink:href="#B"/><use transform="matrix(0.05,0,0,0.05,116.85000000000001,0)" xlink:href="#C"/><use transform="matrix(0.05,0,0,0.05,122.80000000000001,0)" xlink:href="#q"/></g><path fill="#fff" d="M177-190C167-65 218 103 67 71c-23-6-38-20-44-43l32-5c15 47 100 32 89-28v-30C133-14 115 1 83 1 29 1 15-40 15-95c0-56 16-97 71-98 29-1 48 16 59 35 1-10 0-23 2-32h30zM94-22c36 0 50-32 50-73 0-42-14-75-50-75-39 0-46 34-46 75s6 73 46 73" id="D"/><path fill="#fff" d="M100-194c63 0 86 42 84 106H49c0 40 14 67 53 68 26 1 43-12 49-29l28 8c-11 28-37 45-77 45C44 4 14-33 15-96c1-61 26-98 85-98zm52 81c6-60-76-77-97-28-3 7-6 17-6 28h103" id="E"/><path fill="#fff" d="M100-194c62-1 85 37 85 99 1 63-27 99-86 99S16-35 15-95c0-66 28-99 85-99zM99-20c44 1 53-31 53-75 0-43-8-75-51-75s-53 32-53 75 10 74 51 75" id="F"/><path fill="#fff" d="M114-163C36-179 61-72 57 0H25l-1-190h30c1 12-1 29 2 39 6-27 23-49 58-41v29" id="G"/><path fill="#fff" d="M135-143c-3-34-86-38-87 0 15 53 115 12 119 90S17 21 10-45l28-5c4 36 97 45 98 0-10-56-113-15-118-90-4-57 82-63 122-42 12 7 21 19 24 35" id="H"/><path fill="#fff" d="M84 4C-5 8 30-112 23-190h32v120c0 31 7 50 39 49 72-2 45-101 50-169h31l1 190h-30c-1-10 1-25-2-33-11 22-28 36-60 37" id="I"/><path fill="#fff" d="M96-169c-40 0-48 33-48 73s9 75 48 75c24 0 41-14 43-38l32 2c-6 37-31 61-74 61-59 0-76-41-82-99-10-93 101-131 147-64 4 7 5 14 7 22l-32 3c-4-21-16-35-41-35" id="J"/><g id="c"><use transform="matrix(0.05,0,0,0.05,0,0)" xlink:href="#D"/><use transform="matrix(0.05,0,0,0.05,10,0)" xlink:href="#E"/><use transform="matrix(0.05,0,0,0.05,20,0)" xlink:href="#F"/><use transform="matrix(0.05,0,0,0.05,30,0)" xlink:href="#G"/><use transform="matrix(0.05,0,0,0.05,35.95,0)" xlink:href="#E"/><use transform="matrix(0.05,0,0,0.05,45.95,0)" xlink:href="#H"/><use transform="matrix(0.05,0,0,0.05,54.95,0)" xlink:href="#F"/><use transform="matrix(0.05,0,0,0.05,64.95,0)" xlink:href="#I"/><use transform="matrix(0.05,0,0,0.05,74.95,0)" xlink:href="#G"/><use transform="matrix(0.05,0,0,0.05,80.9,0)" xlink:href="#J"/><use transform="matrix(0.05,0,0,0.05,89.9,0)" xlink:href="#E"/></g><path fill="#fff" d="M141-36C126-15 110 5 73 4 37 3 15-17 15-53c-1-64 63-63 125-63 3-35-9-54-41-54-24 1-41 7-42 31l-33-3c5-37 33-52 76-52 45 0 72 20 72 64v82c-1 20 7 32 28 27v20c-31 9-61-2-59-35zM48-53c0 20 12 33 32 33 41-3 63-29 60-74-43 2-92-5-92 41" id="K"/><path fill="#fff" d="M210-169c-67 3-38 105-44 169h-31v-121c0-29-5-50-35-48C34-165 62-65 56 0H25l-1-190h30c1 10-1 24 2 32 10-44 99-50 107 0 11-21 27-35 58-36 85-2 47 119 55 194h-31v-121c0-29-5-49-35-48" id="L"/><path fill="#fff" d="M24 0v-261h32V0H24" id="M"/><path fill="#fff" d="M59-47c-2 24 18 29 38 22v24C64 9 27 4 27-40v-127H5v-23h24l9-43h21v43h35v23H59v120" id="N"/><path fill="#fff" d="M24-231v-30h32v30H24zM24 0v-190h32V0H24" id="O"/><path fill="#fff" d="M117-194c89-4 53 116 60 194h-32v-121c0-31-8-49-39-48C34-167 62-67 57 0H25l-1-190h30c1 10-1 24 2 32 11-22 29-35 61-36" id="P"/><g id="d"><use transform="matrix(0.05,0,0,0.05,0,0)" xlink:href="#K"/><use transform="matrix(0.05,0,0,0.05,10,0)" xlink:href="#J"/><use transform="matrix(0.05,0,0,0.05,19,0)" xlink:href="#J"/><use transform="matrix(0.05,0,0,0.05,28,0)" xlink:href="#I"/><use transform="matrix(0.05,0,0,0.05,38,0)" xlink:href="#L"/><use transform="matrix(0.05,0,0,0.05,52.95,0)" xlink:href="#I"/><use transform="matrix(0.05,0,0,0.05,62.95,0)" xlink:href="#M"/><use transform="matrix(0.05,0,0,0.05,66.9,0)" xlink:href="#K"/><use transform="matrix(0.05,0,0,0.05,76.9,0)" xlink:href="#N"/><use transform="matrix(0.05,0,0,0.05,81.9,0)" xlink:href="#O"/><use transform="matrix(0.05,0,0,0.05,85.85000000000001,0)" xlink:href="#F"/><use transform="matrix(0.05,0,0,0.05,95.85000000000001,0)" xlink:href="#P"/></g><g id="e"><use transform="matrix(0.05,0,0,0.05,0,0)" xlink:href="#H"/><use transform="matrix(0.05,0,0,0.05,9,0)" xlink:href="#N"/><use transform="matrix(0.05,0,0,0.05,14,0)" xlink:href="#G"/><use transform="matrix(0.05,0,0,0.05,19.95,0)" xlink:href="#I"/><use transform="matrix(0.05,0,0,0.05,29.950000000000003,0)" xlink:href="#J"/><use transform="matrix(0.05,0,0,0.05,38.95,0)" xlink:href="#N"/><use transform="matrix(0.05,0,0,0.05,43.95,0)" xlink:href="#I"/><use transform="matrix(0.05,0,0,0.05,53.95,0)" xlink:href="#G"/><use transform="matrix(0.05,0,0,0.05,59.900000000000006,0)" xlink:href="#K"/><use transform="matrix(0.05,0,0,0.05,69.9,0)" xlink:href="#M"/></g><path fill="#fff" d="M101-234c-31-9-42 10-38 44h38v23H63V0H32v-167H5v-23h27c-7-52 17-82 69-68v24" id="Q"/><g id="f"><use transform="matrix(0.05,0,0,0.05,0,0)" xlink:href="#Q"/><use transform="matrix(0.05,0,0,0.05,5,0)" xlink:href="#E"/><use transform="matrix(0.05,0,0,0.05,15,0)" xlink:href="#K"/><use transform="matrix(0.05,0,0,0.05,25,0)" xlink:href="#N"/><use transform="matrix(0.05,0,0,0.05,30,0)" xlink:href="#I"/><use transform="matrix(0.05,0,0,0.05,40,0)" xlink:href="#G"/><use transform="matrix(0.05,0,0,0.05,45.95,0)" xlink:href="#E"/></g><path fill="#fff" d="M106-169C34-169 62-67 57 0H25v-261h32l-1 103c12-21 28-36 61-36 89 0 53 116 60 194h-32v-121c2-32-8-49-39-48" id="R"/><path fill="#fff" d="M85-194c31 0 48 13 60 33l-1-100h32l1 261h-30c-2-10 0-23-3-31C134-8 116 4 85 4 32 4 16-35 15-94c0-66 23-100 70-100zm9 24c-40 0-46 34-46 75 0 40 6 74 45 74 42 0 51-32 51-76 0-42-9-74-50-73" id="S"/><g id="g"><use transform="matrix(0.05,0,0,0.05,0,0)" xlink:href="#M"/><use transform="matrix(0.05,0,0,0.05,3.95,0)" xlink:href="#O"/><use transform="matrix(0.05,0,0,0.05,7.9,0)" xlink:href="#N"/><use transform="matrix(0.05,0,0,0.05,12.9,0)" xlink:href="#R"/><use transform="matrix(0.05,0,0,0.05,22.9,0)" xlink:href="#F"/><use transform="matrix(0.05,0,0,0.05,32.9,0)" xlink:href="#S"/><use transform="matrix(0.05,0,0,0.05,42.9,0)" xlink:href="#E"/><use transform="matrix(0.05,0,0,0.05,52.900000000000006,0)" xlink:href="#L"/><use transform="matrix(0.05,0,0,0.05,67.85,0)" xlink:href="#O"/><use transform="matrix(0.05,0,0,0.05,71.8,0)" xlink:href="#J"/></g><path fill="#fff" d="M115-194c55 1 70 41 70 98S169 2 115 4C84 4 66-9 55-30l1 105H24l-1-265h31l2 30c10-21 28-34 59-34zm-8 174c40 0 45-34 45-75s-6-73-45-74c-42 0-51 32-51 76 0 43 10 73 51 73" id="T"/><path fill="#fff" d="M179-190L93 31C79 59 56 82 12 73V49c39 6 53-20 64-50L1-190h34L92-34l54-156h33" id="U"/><g id="h"><use transform="matrix(0.05,0,0,0.05,0,0)" xlink:href="#D"/><use transform="matrix(0.05,0,0,0.05,10,0)" xlink:href="#E"/><use transform="matrix(0.05,0,0,0.05,20,0)" xlink:href="#F"/><use transform="matrix(0.05,0,0,0.05,30,0)" xlink:href="#T"/><use transform="matrix(0.05,0,0,0.05,40,0)" xlink:href="#R"/><use transform="matrix(0.05,0,0,0.05,50,0)" xlink:href="#U"/><use transform="matrix(0.05,0,0,0.05,59,0)" xlink:href="#H"/><use transform="matrix(0.05,0,0,0.05,68,0)" xlink:href="#O"/><use transform="matrix(0.05,0,0,0.05,71.95,0)" xlink:href="#J"/><use transform="matrix(0.05,0,0,0.05,80.95,0)" xlink:href="#K"/><use transform="matrix(0.05,0,0,0.05,90.95,0)" xlink:href="#M"/></g><g id="i"><use transform="matrix(0.05,0,0,0.05,0,0)" xlink:href="#Q"/><use transform="matrix(0.05,0,0,0.05,5,0)" xlink:href="#E"/><use transform="matrix(0.05,0,0,0.05,15,0)" xlink:href="#K"/><use transform="matrix(0.05,0,0,0.05,25,0)" xlink:href="#N"/><use transform="matrix(0.05,0,0,0.05,30,0)" xlink:href="#I"/><use transform="matrix(0.05,0,0,0.05,40,0)" xlink:href="#G"/><use transform="matrix(0.05,0,0,0.05,45.95,0)" xlink:href="#E"/></g><g id="j"><use transform="matrix(0.05,0,0,0.05,0,0)" xlink:href="#D"/><use transform="matrix(0.05,0,0,0.05,10,0)" xlink:href="#E"/><use transform="matrix(0.05,0,0,0.05,20,0)" xlink:href="#F"/><use transform="matrix(0.05,0,0,0.05,30,0)" xlink:href="#M"/><use transform="matrix(0.05,0,0,0.05,33.95,0)" xlink:href="#F"/><use transform="matrix(0.05,0,0,0.05,43.95,0)" xlink:href="#D"/><use transform="matrix(0.05,0,0,0.05,53.95,0)" xlink:href="#O"/><use transform="matrix(0.05,0,0,0.05,57.900000000000006,0)" xlink:href="#J"/><use transform="matrix(0.05,0,0,0.05,66.9,0)" xlink:href="#K"/><use transform="matrix(0.05,0,0,0.05,76.9,0)" xlink:href="#M"/><use transform="matrix(0.05,0,0,0.05,80.85000000000001,0)" xlink:href="#M"/><use transform="matrix(0.05,0,0,0.05,84.80000000000001,0)" xlink:href="#U"/></g><g id="k"><use transform="matrix(0.05,0,0,0.05,0,0)" xlink:href="#H"/><use transform="matrix(0.05,0,0,0.05,9,0)" xlink:href="#O"/><use transform="matrix(0.05,0,0,0.05,12.949999999999998,0)" xlink:href="#D"/><use transform="matrix(0.05,0,0,0.05,22.95,0)" xlink:href="#P"/><use transform="matrix(0.05,0,0,0.05,32.95,0)" xlink:href="#O"/><use transform="matrix(0.05,0,0,0.05,36.900000000000006,0)" xlink:href="#Q"/><use transform="matrix(0.05,0,0,0.05,41.900000000000006,0)" xlink:href="#O"/><use transform="matrix(0.05,0,0,0.05,45.85000000000001,0)" xlink:href="#J"/><use transform="matrix(0.05,0,0,0.05,54.85,0)" xlink:href="#K"/><use transform="matrix(0.05,0,0,0.05,64.85000000000001,0)" xlink:href="#P"/><use transform="matrix(0.05,0,0,0.05,74.85000000000001,0)" xlink:href="#N"/></g><g id="l"><use transform="matrix(0.05,0,0,0.05,0,0)" xlink:href="#H"/><use transform="matrix(0.05,0,0,0.05,9,0)" xlink:href="#O"/><use transform="matrix(0.05,0,0,0.05,12.949999999999998,0)" xlink:href="#N"/><use transform="matrix(0.05,0,0,0.05,17.95,0)" xlink:href="#E"/></g><g id="m"><use transform="matrix(0.05,0,0,0.05,0,0)" xlink:href="#N"/><use transform="matrix(0.05,0,0,0.05,5,0)" xlink:href="#E"/><use transform="matrix(0.05,0,0,0.05,15,0)" xlink:href="#J"/><use transform="matrix(0.05,0,0,0.05,24,0)" xlink:href="#N"/><use transform="matrix(0.05,0,0,0.05,29,0)" xlink:href="#F"/><use transform="matrix(0.05,0,0,0.05,39,0)" xlink:href="#P"/><use transform="matrix(0.05,0,0,0.05,49,0)" xlink:href="#O"/><use transform="matrix(0.05,0,0,0.05,52.95,0)" xlink:href="#J"/></g><g id="n"><use transform="matrix(0.05,0,0,0.05,0,0)" xlink:href="#H"/><use transform="matrix(0.05,0,0,0.05,9,0)" xlink:href="#N"/><use transform="matrix(0.05,0,0,0.05,14,0)" xlink:href="#G"/><use transform="matrix(0.05,0,0,0.05,19.95,0)" xlink:href="#K"/><use transform="matrix(0.05,0,0,0.05,29.950000000000003,0)" xlink:href="#N"/><use transform="matrix(0.05,0,0,0.05,34.95,0)" xlink:href="#O"/><use transform="matrix(0.05,0,0,0.05,38.900000000000006,0)" xlink:href="#D"/><use transform="matrix(0.05,0,0,0.05,48.900000000000006,0)" xlink:href="#G"/><use transform="matrix(0.05,0,0,0.05,54.85,0)" xlink:href="#K"/><use transform="matrix(0.05,0,0,0.05,64.85000000000001,0)" xlink:href="#T"/><use transform="matrix(0.05,0,0,0.05,74.85000000000001,0)" xlink:href="#R"/><use transform="matrix(0.05,0,0,0.05,84.85000000000001,0)" xlink:href="#O"/><use transform="matrix(0.05,0,0,0.05,88.80000000000001,0)" xlink:href="#J"/></g></defs></g></svg>