<svg xmlns="http://www.w3.org/2000/svg" xmlns:xlink="http://www.w3.org/1999/xlink" xmlns:lucid="lucid" width="1500" height="743.1"><g transform="translate(0 0)" lucid:page-tab-id="iXTSRCquaO9-"><path d="M0 0h1870.4v1323.2H0z" fill="#fff"/><path d="M820 25c0-2.76 2.24-5 5-5h150c2.76 0 5 2.24 5 5v110c0 2.76-2.24 5-5 5H825c-2.76 0-5-2.24-5-5z" stroke="#000" stroke-width="2" fill="#fff"/><use xlink:href="#a" transform="matrix(1,0,0,1,828,28) translate(23.549999999999997 55.6)"/><path d="M20 566.3c0-2.76 2.24-5 5-5h150c2.76 0 5 2.24 5 5v108c0 2.76-2.24 5-5 5H25c-2.76 0-5-2.24-5-5z" stroke="#000" stroke-width="2" fill="#666"/><use xlink:href="#b" transform="matrix(1,0,0,1,28,569.3) translate(49.525 54.6)"/><path d="M100 559.3v-28.65h360V519.5" stroke="#000" stroke-width="2" fill="none"/><path d="M101 560.3h-2v-1.03h2z"/><path d="M460 504.24l4.64 14.26h-9.28z" stroke="#000" stroke-width="2" fill="#fff"/><path d="M560 205c0-2.76 2.24-5 5-5h150c2.76 0 5 2.24 5 5v108c0 2.76-2.24 5-5 5H565c-2.76 0-5-2.24-5-5z" stroke="#000" stroke-width="2" fill="#666"/><use xlink:href="#c" transform="matrix(1,0,0,1,568,208) translate(29.574999999999996 43.8)"/><use xlink:href="#d" transform="matrix(1,0,0,1,568,208) translate(41.05 65.4)"/><path d="M640 198v-28h260v-10.5" stroke="#000" stroke-width="2" fill="none"/><path d="M641 199h-2v-1.03h2z"/><path d="M900 144.24l4.64 14.26h-9.28z" stroke="#000" stroke-width="2" fill="#fff"/><path d="M380 385c0-2.76 2.24-5 5-5h150c2.76 0 5 2.24 5 5v110c0 2.76-2.24 5-5 5H385c-2.76 0-5-2.24-5-5z" stroke="#000" stroke-width="2" fill="#666"/><use xlink:href="#e" transform="matrix(1,0,0,1,388,388) translate(33.574999999999996 34)"/><use xlink:href="#f" transform="matrix(1,0,0,1,388,388) translate(27.125 55.6)"/><use xlink:href="#g" transform="matrix(1,0,0,1,388,388) translate(41.05 77.2)"/><path d="M560 385c0-2.76 2.24-5 5-5h150c2.76 0 5 2.24 5 5v110c0 2.76-2.24 5-5 5H565c-2.76 0-5-2.24-5-5z" stroke="#000" stroke-width="2" fill="#666"/><use xlink:href="#h" transform="matrix(1,0,0,1,568,388) translate(21.599999999999994 44.8)"/><use xlink:href="#g" transform="matrix(1,0,0,1,568,388) translate(41.05 66.4)"/><path d="M740 385c0-2.76 2.24-5 5-5h150c2.76 0 5 2.24 5 5v108c0 2.76-2.24 5-5 5H745c-2.76 0-5-2.24-5-5z" stroke="#000" stroke-width="2" fill="#666"/><use xlink:href="#i" transform="matrix(1,0,0,1,748,388.00000000000006) translate(2.1499999999999915 43.8)"/><use xlink:href="#g" transform="matrix(1,0,0,1,748,388.00000000000006) translate(41.05 65.4)"/><path d="M1320 385c0-2.76 2.24-5 5-5h150c2.76 0 5 2.24 5 5v110c0 2.76-2.24 5-5 5h-150c-2.76 0-5-2.24-5-5z" stroke="#000" stroke-width="2" fill="#666"/><use xlink:href="#j" transform="matrix(1,0,0,1,1328,388) translate(46.075 55.6)"/><path d="M960 384c0-2.76 2.24-5 5-5h150c2.76 0 5 2.24 5 5v110c0 2.76-2.24 5-5 5H965c-2.76 0-5-2.24-5-5z" stroke="#000" stroke-width="2" fill="#666"/><use xlink:href="#k" transform="matrix(1,0,0,1,968,387.00000000000006) translate(50.025 55.6)"/><path d="M1140 385c0-2.76 2.24-5 5-5h150c2.76 0 5 2.24 5 5v110c0 2.76-2.24 5-5 5h-150c-2.76 0-5-2.24-5-5z" stroke="#000" stroke-width="2" fill="#666"/><use xlink:href="#l" transform="matrix(1,0,0,1,1148,388) translate(31.049999999999997 55.6)"/><path d="M1041 540h39.08v2H1039v-40.18h2zm180 2h-42.08v-2H1219v-38h2z"/><path d="M1221 502.03h-2V501h2zM1051.04 518.67l-1.72 1.02-9.32-15.77-9.32 15.76-1.72-1.03L1040 500z"/><use xlink:href="#m" transform="matrix(1,0,0,1,1080.075,530.2) translate(0 14.4)"/><path d="M1040 205c0-2.76 2.24-5 5-5h150c2.76 0 5 2.24 5 5v110c0 2.76-2.24 5-5 5h-150c-2.76 0-5-2.24-5-5z" stroke="#000" stroke-width="2" fill="#666"/><use xlink:href="#n" transform="matrix(1,0,0,1,1048,208) translate(15.624999999999993 44.8)"/><use xlink:href="#d" transform="matrix(1,0,0,1,1048,208) translate(41.05 66.4)"/><path d="M1040 377v-27.5h80v-10" stroke="#000" stroke-width="2" fill="none"/><path d="M1041 378h-2v-1.03h2z"/><path d="M1120 324.24l4.64 14.26h-9.28z" stroke="#000" stroke-width="2" fill="#fff"/><path d="M1400 378v-28h-280v-10.5" stroke="#000" stroke-width="2" fill="none"/><path d="M1401 379h-2v-1.03h2z"/><path d="M1120 324.24l4.64 14.26h-9.28z" stroke="#000" stroke-width="2" fill="#fff"/><path d="M1120 198v-28H900v-10.5" stroke="#000" stroke-width="2" fill="none"/><path d="M1121 199h-2v-1.03h2z"/><path d="M900 144.24l4.64 14.26h-9.28z" stroke="#000" stroke-width="2" fill="#fff"/><path d="M460 378v-29h180v-11.5" stroke="#000" stroke-width="2" fill="none"/><path d="M461 379h-2v-1.03h2z"/><path d="M640 322.24l4.64 14.26h-9.28z" stroke="#000" stroke-width="2" fill="#fff"/><path d="M640 378v-40.5" stroke="#000" stroke-width="2" fill="none"/><path d="M641 379h-2v-1.03h2z"/><path d="M640 322.24l4.64 14.26h-9.28z" stroke="#000" stroke-width="2" fill="#fff"/><path d="M820 378v-29H640v-11.5" stroke="#000" stroke-width="2" fill="none"/><path d="M821 379h-2v-1.03h2z"/><path d="M640 322.24l4.64 14.26h-9.28z" stroke="#000" stroke-width="2" fill="#fff"/><path d="M200 566.3c0-2.76 2.24-5 5-5h150c2.76 0 5 2.24 5 5v108c0 2.76-2.24 5-5 5H205c-2.76 0-5-2.24-5-5z" stroke="#000" stroke-width="2" fill="#666"/><use xlink:href="#o" transform="matrix(1,0,0,1,208,569.3) translate(42.025 54.6)"/><path d="M380 568.9c0-2.76 2.24-5 5-5h150c2.76 0 5 2.24 5 5v108c0 2.76-2.24 5-5 5H385c-2.76 0-5-2.24-5-5z" stroke="#000" stroke-width="2" fill="#666"/><use xlink:href="#p" transform="matrix(1,0,0,1,388,571.8999999999999) translate(40.05 54.6)"/><path d="M560 567.3c0-2.76 2.24-5 5-5h150c2.76 0 5 2.24 5 5v108c0 2.76-2.24 5-5 5H565c-2.76 0-5-2.24-5-5z" stroke="#000" stroke-width="2" fill="#666"/><use xlink:href="#q" transform="matrix(1,0,0,1,568,570.3) translate(37.05 54.6)"/><path d="M740 566.3c0-2.76 2.24-5 5-5h150c2.76 0 5 2.24 5 5v108c0 2.76-2.24 5-5 5H745c-2.76 0-5-2.24-5-5z" stroke="#000" stroke-width="2" fill="#666"/><use xlink:href="#r" transform="matrix(1,0,0,1,748,569.3) translate(18.074999999999996 54.6)"/><path d="M641 720.3h40.08v2H639v-39.18h2zm180 2h-41.08v-2H819v-39h2z"/><path d="M821 681.33h-2v-1.03h2zM651.04 699.97l-1.72 1.02-9.32-15.77-9.32 15.76-1.72-1.03L640 681.3z"/><use xlink:href="#m" transform="matrix(1,0,0,1,681.075,710.5) translate(0 14.4)"/><path d="M280 559.3v-28.65h180V519.5" stroke="#000" stroke-width="2" fill="none"/><path d="M281 560.3h-2v-1.03h2z"/><path d="M460 504.24l4.64 14.26h-9.28z" stroke="#000" stroke-width="2" fill="#fff"/><path d="M820 559.3v-28.65H460V519.5" stroke="#000" stroke-width="2" fill="none"/><path d="M821 560.3h-2v-1.03h2z"/><path d="M460 504.24l4.64 14.26h-9.28z" stroke="#000" stroke-width="2" fill="#fff"/><path d="M460 561.9v-42.4" stroke="#000" stroke-width="2" fill="none"/><path d="M461 562.9h-2v-1.03h2z"/><path d="M460 504.24l4.64 14.26h-9.28z" stroke="#000" stroke-width="2" fill="#fff"/><path d="M640 560.3v-29.15H460V519.5" stroke="#000" stroke-width="2" fill="none"/><path d="M641 561.3h-2v-1.03h2z"/><path d="M460 504.24l4.64 14.26h-9.28z" stroke="#000" stroke-width="2" fill="#fff"/><path d="M1220 378v-28h-100v-10.5" stroke="#000" stroke-width="2" fill="none"/><path d="M1221 379h-2v-1.03h2z"/><path d="M1120 324.24l4.64 14.26h-9.28z" stroke="#000" stroke-width="2" fill="#fff"/><defs><path d="M177-190C167-65 218 103 67 71c-23-6-38-20-44-43l32-5c15 47 100 32 89-28v-30C133-14 115 1 83 1 29 1 15-40 15-95c0-56 16-97 71-98 29-1 48 16 59 35 1-10 0-23 2-32h30zM94-22c36 0 50-32 50-73 0-42-14-75-50-75-39 0-46 34-46 75s6 73 46 73" id="s"/><path d="M100-194c63 0 86 42 84 106H49c0 40 14 67 53 68 26 1 43-12 49-29l28 8c-11 28-37 45-77 45C44 4 14-33 15-96c1-61 26-98 85-98zm52 81c6-60-76-77-97-28-3 7-6 17-6 28h103" id="t"/><path d="M100-194c62-1 85 37 85 99 1 63-27 99-86 99S16-35 15-95c0-66 28-99 85-99zM99-20c44 1 53-31 53-75 0-43-8-75-51-75s-53 32-53 75 10 74 51 75" id="u"/><path d="M33-154v-36h34v36H33zM33 0v-36h34V0H33" id="v"/><path d="M63-220v92h138v28H63V0H30v-248h175v28H63" id="w"/><path d="M141-36C126-15 110 5 73 4 37 3 15-17 15-53c-1-64 63-63 125-63 3-35-9-54-41-54-24 1-41 7-42 31l-33-3c5-37 33-52 76-52 45 0 72 20 72 64v82c-1 20 7 32 28 27v20c-31 9-61-2-59-35zM48-53c0 20 12 33 32 33 41-3 63-29 60-74-43 2-92-5-92 41" id="x"/><path d="M59-47c-2 24 18 29 38 22v24C64 9 27 4 27-40v-127H5v-23h24l9-43h21v43h35v23H59v120" id="y"/><path d="M84 4C-5 8 30-112 23-190h32v120c0 31 7 50 39 49 72-2 45-101 50-169h31l1 190h-30c-1-10 1-25-2-33-11 22-28 36-60 37" id="z"/><path d="M114-163C36-179 61-72 57 0H25l-1-190h30c1 12-1 29 2 39 6-27 23-49 58-41v29" id="A"/><g id="a"><use transform="matrix(0.05,0,0,0.05,0,0)" xlink:href="#s"/><use transform="matrix(0.05,0,0,0.05,10,0)" xlink:href="#t"/><use transform="matrix(0.05,0,0,0.05,20,0)" xlink:href="#u"/><use transform="matrix(0.05,0,0,0.05,30,0)" xlink:href="#v"/><use transform="matrix(0.05,0,0,0.05,35,0)" xlink:href="#w"/><use transform="matrix(0.05,0,0,0.05,45.95,0)" xlink:href="#t"/><use transform="matrix(0.05,0,0,0.05,55.95,0)" xlink:href="#x"/><use transform="matrix(0.05,0,0,0.05,65.95,0)" xlink:href="#y"/><use transform="matrix(0.05,0,0,0.05,70.95,0)" xlink:href="#z"/><use transform="matrix(0.05,0,0,0.05,80.95,0)" xlink:href="#A"/><use transform="matrix(0.05,0,0,0.05,86.9,0)" xlink:href="#t"/></g><path fill="#fff" d="M160-131c35 5 61 23 61 61C221 17 115-2 30 0v-248c76 3 177-17 177 60 0 33-19 50-47 57zm-97-11c50-1 110 9 110-42 0-47-63-36-110-37v79zm0 115c55-2 124 14 124-45 0-56-70-42-124-44v89" id="B"/><path fill="#fff" d="M141-36C126-15 110 5 73 4 37 3 15-17 15-53c-1-64 63-63 125-63 3-35-9-54-41-54-24 1-41 7-42 31l-33-3c5-37 33-52 76-52 45 0 72 20 72 64v82c-1 20 7 32 28 27v20c-31 9-61-2-59-35zM48-53c0 20 12 33 32 33 41-3 63-29 60-74-43 2-92-5-92 41" id="C"/><path fill="#fff" d="M135-143c-3-34-86-38-87 0 15 53 115 12 119 90S17 21 10-45l28-5c4 36 97 45 98 0-10-56-113-15-118-90-4-57 82-63 122-42 12 7 21 19 24 35" id="D"/><path fill="#fff" d="M24-231v-30h32v30H24zM24 0v-190h32V0H24" id="E"/><path fill="#fff" d="M117-194c89-4 53 116 60 194h-32v-121c0-31-8-49-39-48C34-167 62-67 57 0H25l-1-190h30c1 10-1 24 2 32 11-22 29-35 61-36" id="F"/><g id="b"><use transform="matrix(0.05,0,0,0.05,0,0)" xlink:href="#B"/><use transform="matrix(0.05,0,0,0.05,12,0)" xlink:href="#C"/><use transform="matrix(0.05,0,0,0.05,22,0)" xlink:href="#D"/><use transform="matrix(0.05,0,0,0.05,31,0)" xlink:href="#E"/><use transform="matrix(0.05,0,0,0.05,34.95,0)" xlink:href="#F"/></g><path fill="#fff" d="M143 4C61 4 22-44 18-125c-5-107 100-154 193-111 17 8 29 25 37 43l-32 9c-13-25-37-40-76-40-61 0-88 39-88 99 0 61 29 100 91 101 35 0 62-11 79-27v-45h-74v-28h105v86C228-13 192 4 143 4" id="G"/><path fill="#fff" d="M100-194c63 0 86 42 84 106H49c0 40 14 67 53 68 26 1 43-12 49-29l28 8c-11 28-37 45-77 45C44 4 14-33 15-96c1-61 26-98 85-98zm52 81c6-60-76-77-97-28-3 7-6 17-6 28h103" id="H"/><path fill="#fff" d="M100-194c62-1 85 37 85 99 1 63-27 99-86 99S16-35 15-95c0-66 28-99 85-99zM99-20c44 1 53-31 53-75 0-43-8-75-51-75s-53 32-53 75 10 74 51 75" id="I"/><path fill="#fff" d="M24 0v-261h32V0H24" id="J"/><path fill="#fff" d="M177-190C167-65 218 103 67 71c-23-6-38-20-44-43l32-5c15 47 100 32 89-28v-30C133-14 115 1 83 1 29 1 15-40 15-95c0-56 16-97 71-98 29-1 48 16 59 35 1-10 0-23 2-32h30zM94-22c36 0 50-32 50-73 0-42-14-75-50-75-39 0-46 34-46 75s6 73 46 73" id="K"/><path fill="#fff" d="M96-169c-40 0-48 33-48 73s9 75 48 75c24 0 41-14 43-38l32 2c-6 37-31 61-74 61-59 0-76-41-82-99-10-93 101-131 147-64 4 7 5 14 7 22l-32 3c-4-21-16-35-41-35" id="L"/><g id="c"><use transform="matrix(0.05,0,0,0.05,0,0)" xlink:href="#G"/><use transform="matrix(0.05,0,0,0.05,14,0)" xlink:href="#H"/><use transform="matrix(0.05,0,0,0.05,24,0)" xlink:href="#I"/><use transform="matrix(0.05,0,0,0.05,34,0)" xlink:href="#J"/><use transform="matrix(0.05,0,0,0.05,37.95,0)" xlink:href="#I"/><use transform="matrix(0.05,0,0,0.05,47.95,0)" xlink:href="#K"/><use transform="matrix(0.05,0,0,0.05,57.95,0)" xlink:href="#E"/><use transform="matrix(0.05,0,0,0.05,61.900000000000006,0)" xlink:href="#L"/><use transform="matrix(0.05,0,0,0.05,70.9,0)" xlink:href="#C"/><use transform="matrix(0.05,0,0,0.05,80.9,0)" xlink:href="#J"/></g><path fill="#fff" d="M63-220v92h138v28H63V0H30v-248h175v28H63" id="M"/><path fill="#fff" d="M59-47c-2 24 18 29 38 22v24C64 9 27 4 27-40v-127H5v-23h24l9-43h21v43h35v23H59v120" id="N"/><path fill="#fff" d="M84 4C-5 8 30-112 23-190h32v120c0 31 7 50 39 49 72-2 45-101 50-169h31l1 190h-30c-1-10 1-25-2-33-11 22-28 36-60 37" id="O"/><path fill="#fff" d="M114-163C36-179 61-72 57 0H25l-1-190h30c1 12-1 29 2 39 6-27 23-49 58-41v29" id="P"/><g id="d"><use transform="matrix(0.05,0,0,0.05,0,0)" xlink:href="#M"/><use transform="matrix(0.05,0,0,0.05,10.950000000000001,0)" xlink:href="#H"/><use transform="matrix(0.05,0,0,0.05,20.950000000000003,0)" xlink:href="#C"/><use transform="matrix(0.05,0,0,0.05,30.950000000000003,0)" xlink:href="#N"/><use transform="matrix(0.05,0,0,0.05,35.95,0)" xlink:href="#O"/><use transform="matrix(0.05,0,0,0.05,45.95,0)" xlink:href="#P"/><use transform="matrix(0.05,0,0,0.05,51.900000000000006,0)" xlink:href="#H"/></g><path fill="#fff" d="M185-189c-5-48-123-54-124 2 14 75 158 14 163 119 3 78-121 87-175 55-17-10-28-26-33-46l33-7c5 56 141 63 141-1 0-78-155-14-162-118-5-82 145-84 179-34 5 7 8 16 11 25" id="Q"/><g id="e"><use transform="matrix(0.05,0,0,0.05,0,0)" xlink:href="#Q"/><use transform="matrix(0.05,0,0,0.05,12,0)" xlink:href="#N"/><use transform="matrix(0.05,0,0,0.05,17,0)" xlink:href="#P"/><use transform="matrix(0.05,0,0,0.05,22.95,0)" xlink:href="#O"/><use transform="matrix(0.05,0,0,0.05,32.95,0)" xlink:href="#L"/><use transform="matrix(0.05,0,0,0.05,41.95,0)" xlink:href="#N"/><use transform="matrix(0.05,0,0,0.05,46.95,0)" xlink:href="#O"/><use transform="matrix(0.05,0,0,0.05,56.95,0)" xlink:href="#P"/><use transform="matrix(0.05,0,0,0.05,62.900000000000006,0)" xlink:href="#C"/><use transform="matrix(0.05,0,0,0.05,72.9,0)" xlink:href="#J"/></g><path fill="#fff" d="M210-169c-67 3-38 105-44 169h-31v-121c0-29-5-50-35-48C34-165 62-65 56 0H25l-1-190h30c1 10-1 24 2 32 10-44 99-50 107 0 11-21 27-35 58-36 85-2 47 119 55 194h-31v-121c0-29-5-49-35-48" id="R"/><path fill="#fff" d="M206 0h-36l-40-164L89 0H53L-1-190h32L70-26l43-164h34l41 164 42-164h31" id="S"/><path fill="#fff" d="M143 0L79-87 56-68V0H24v-261h32v163l83-92h37l-77 82L181 0h-38" id="T"/><g id="f"><use transform="matrix(0.05,0,0,0.05,0,0)" xlink:href="#M"/><use transform="matrix(0.05,0,0,0.05,10.950000000000001,0)" xlink:href="#P"/><use transform="matrix(0.05,0,0,0.05,16.900000000000002,0)" xlink:href="#C"/><use transform="matrix(0.05,0,0,0.05,26.900000000000002,0)" xlink:href="#R"/><use transform="matrix(0.05,0,0,0.05,41.85,0)" xlink:href="#H"/><use transform="matrix(0.05,0,0,0.05,51.85,0)" xlink:href="#S"/><use transform="matrix(0.05,0,0,0.05,64.8,0)" xlink:href="#I"/><use transform="matrix(0.05,0,0,0.05,74.8,0)" xlink:href="#P"/><use transform="matrix(0.05,0,0,0.05,80.75,0)" xlink:href="#T"/></g><g id="g"><use transform="matrix(0.05,0,0,0.05,0,0)" xlink:href="#M"/><use transform="matrix(0.05,0,0,0.05,10.950000000000001,0)" xlink:href="#H"/><use transform="matrix(0.05,0,0,0.05,20.950000000000003,0)" xlink:href="#C"/><use transform="matrix(0.05,0,0,0.05,30.950000000000003,0)" xlink:href="#N"/><use transform="matrix(0.05,0,0,0.05,35.95,0)" xlink:href="#O"/><use transform="matrix(0.05,0,0,0.05,45.95,0)" xlink:href="#P"/><use transform="matrix(0.05,0,0,0.05,51.900000000000006,0)" xlink:href="#H"/></g><path fill="#fff" d="M115-194c55 1 70 41 70 98S169 2 115 4C84 4 66-9 55-30l1 105H24l-1-265h31l2 30c10-21 28-34 59-34zm-8 174c40 0 45-34 45-75s-6-73-45-74c-42 0-51 32-51 76 0 43 10 73 51 73" id="U"/><path fill="#fff" d="M106-169C34-169 62-67 57 0H25v-261h32l-1 103c12-21 28-36 61-36 89 0 53 116 60 194h-32v-121c2-32-8-49-39-48" id="V"/><g id="h"><use transform="matrix(0.05,0,0,0.05,0,0)" xlink:href="#Q"/><use transform="matrix(0.05,0,0,0.05,12,0)" xlink:href="#N"/><use transform="matrix(0.05,0,0,0.05,17,0)" xlink:href="#P"/><use transform="matrix(0.05,0,0,0.05,22.95,0)" xlink:href="#C"/><use transform="matrix(0.05,0,0,0.05,32.95,0)" xlink:href="#N"/><use transform="matrix(0.05,0,0,0.05,37.95,0)" xlink:href="#E"/><use transform="matrix(0.05,0,0,0.05,41.900000000000006,0)" xlink:href="#K"/><use transform="matrix(0.05,0,0,0.05,51.900000000000006,0)" xlink:href="#P"/><use transform="matrix(0.05,0,0,0.05,57.85,0)" xlink:href="#C"/><use transform="matrix(0.05,0,0,0.05,67.85000000000001,0)" xlink:href="#U"/><use transform="matrix(0.05,0,0,0.05,77.85000000000001,0)" xlink:href="#V"/><use transform="matrix(0.05,0,0,0.05,87.85000000000001,0)" xlink:href="#E"/><use transform="matrix(0.05,0,0,0.05,91.80000000000001,0)" xlink:href="#L"/></g><path fill="#fff" d="M190 0L58-211 59 0H30v-248h39L202-35l-2-213h31V0h-41" id="W"/><path fill="#fff" d="M16-82v-28h88v28H16" id="X"/><g id="i"><use transform="matrix(0.05,0,0,0.05,0,0)" xlink:href="#W"/><use transform="matrix(0.05,0,0,0.05,12.950000000000001,0)" xlink:href="#I"/><use transform="matrix(0.05,0,0,0.05,22.950000000000003,0)" xlink:href="#F"/><use transform="matrix(0.05,0,0,0.05,32.95,0)" xlink:href="#X"/><use transform="matrix(0.05,0,0,0.05,38.900000000000006,0)" xlink:href="#Q"/><use transform="matrix(0.05,0,0,0.05,50.900000000000006,0)" xlink:href="#N"/><use transform="matrix(0.05,0,0,0.05,55.900000000000006,0)" xlink:href="#P"/><use transform="matrix(0.05,0,0,0.05,61.85,0)" xlink:href="#C"/><use transform="matrix(0.05,0,0,0.05,71.85000000000001,0)" xlink:href="#N"/><use transform="matrix(0.05,0,0,0.05,76.85000000000001,0)" xlink:href="#E"/><use transform="matrix(0.05,0,0,0.05,80.80000000000001,0)" xlink:href="#K"/><use transform="matrix(0.05,0,0,0.05,90.80000000000001,0)" xlink:href="#P"/><use transform="matrix(0.05,0,0,0.05,96.75000000000001,0)" xlink:href="#C"/><use transform="matrix(0.05,0,0,0.05,106.75,0)" xlink:href="#U"/><use transform="matrix(0.05,0,0,0.05,116.75,0)" xlink:href="#V"/><use transform="matrix(0.05,0,0,0.05,126.75,0)" xlink:href="#E"/><use transform="matrix(0.05,0,0,0.05,130.70000000000002,0)" xlink:href="#L"/></g><path fill="#fff" d="M30-248c87 1 191-15 191 75 0 78-77 80-158 76V0H30v-248zm33 125c57 0 124 11 124-50 0-59-68-47-124-48v98" id="Y"/><g id="j"><use transform="matrix(0.05,0,0,0.05,0,0)" xlink:href="#Y"/><use transform="matrix(0.05,0,0,0.05,12,0)" xlink:href="#H"/><use transform="matrix(0.05,0,0,0.05,22,0)" xlink:href="#P"/><use transform="matrix(0.05,0,0,0.05,27.950000000000003,0)" xlink:href="#R"/><use transform="matrix(0.05,0,0,0.05,42.9,0)" xlink:href="#E"/><use transform="matrix(0.05,0,0,0.05,46.85,0)" xlink:href="#N"/></g><g id="k"><use transform="matrix(0.05,0,0,0.05,0,0)" xlink:href="#B"/><use transform="matrix(0.05,0,0,0.05,12,0)" xlink:href="#J"/><use transform="matrix(0.05,0,0,0.05,15.949999999999998,0)" xlink:href="#I"/><use transform="matrix(0.05,0,0,0.05,25.950000000000003,0)" xlink:href="#L"/><use transform="matrix(0.05,0,0,0.05,34.95,0)" xlink:href="#T"/></g><path fill="#fff" d="M115-194c53 0 69 39 70 98 0 66-23 100-70 100C84 3 66-7 56-30L54 0H23l1-261h32v101c10-23 28-34 59-34zm-8 174c40 0 45-34 45-75 0-40-5-75-45-74-42 0-51 32-51 76 0 43 10 73 51 73" id="Z"/><g id="l"><use transform="matrix(0.05,0,0,0.05,0,0)" xlink:href="#Q"/><use transform="matrix(0.05,0,0,0.05,12,0)" xlink:href="#O"/><use transform="matrix(0.05,0,0,0.05,22,0)" xlink:href="#Z"/><use transform="matrix(0.05,0,0,0.05,32,0)" xlink:href="#X"/><use transform="matrix(0.05,0,0,0.05,37.95,0)" xlink:href="#B"/><use transform="matrix(0.05,0,0,0.05,49.95,0)" xlink:href="#J"/><use transform="matrix(0.05,0,0,0.05,53.900000000000006,0)" xlink:href="#I"/><use transform="matrix(0.05,0,0,0.05,63.900000000000006,0)" xlink:href="#L"/><use transform="matrix(0.05,0,0,0.05,72.9,0)" xlink:href="#T"/></g><path d="M135-143c-3-34-86-38-87 0 15 53 115 12 119 90S17 21 10-45l28-5c4 36 97 45 98 0-10-56-113-15-118-90-4-57 82-63 122-42 12 7 21 19 24 35" id="aa"/><path d="M101-234c-31-9-42 10-38 44h38v23H63V0H32v-167H5v-23h27c-7-52 17-82 69-68v24" id="ab"/><path d="M266 0h-40l-56-210L115 0H75L2-248h35L96-30l15-64 43-154h32l59 218 59-218h35" id="ac"/><path d="M24-231v-30h32v30H24zM24 0v-190h32V0H24" id="ad"/><path d="M106-169C34-169 62-67 57 0H25v-261h32l-1 103c12-21 28-36 61-36 89 0 53 116 60 194h-32v-121c2-32-8-49-39-48" id="ae"/><path d="M117-194c89-4 53 116 60 194h-32v-121c0-31-8-49-39-48C34-167 62-67 57 0H25l-1-190h30c1 10-1 24 2 32 11-22 29-35 61-36" id="af"/><g id="m"><use transform="matrix(0.05,0,0,0.05,0,0)" xlink:href="#s"/><use transform="matrix(0.05,0,0,0.05,10,0)" xlink:href="#t"/><use transform="matrix(0.05,0,0,0.05,20,0)" xlink:href="#u"/><use transform="matrix(0.05,0,0,0.05,30,0)" xlink:href="#v"/><use transform="matrix(0.05,0,0,0.05,35,0)" xlink:href="#aa"/><use transform="matrix(0.05,0,0,0.05,44,0)" xlink:href="#ab"/><use transform="matrix(0.05,0,0,0.05,49,0)" xlink:href="#ac"/><use transform="matrix(0.05,0,0,0.05,65.95,0)" xlink:href="#ad"/><use transform="matrix(0.05,0,0,0.05,69.9,0)" xlink:href="#y"/><use transform="matrix(0.05,0,0,0.05,74.9,0)" xlink:href="#ae"/><use transform="matrix(0.05,0,0,0.05,84.9,0)" xlink:href="#ad"/><use transform="matrix(0.05,0,0,0.05,88.85000000000001,0)" xlink:href="#af"/></g><path fill="#fff" d="M205 0l-28-72H64L36 0H1l101-248h38L239 0h-34zm-38-99l-47-123c-12 45-31 82-46 123h93" id="ag"/><path fill="#fff" d="M85-194c31 0 48 13 60 33l-1-100h32l1 261h-30c-2-10 0-23-3-31C134-8 116 4 85 4 32 4 16-35 15-94c0-66 23-100 70-100zm9 24c-40 0-46 34-46 75 0 40 6 74 45 74 42 0 51-32 51-76 0-42-9-74-50-73" id="ah"/><path fill="#fff" d="M108 0H70L1-190h34L89-25l56-165h34" id="ai"/><g id="n"><use transform="matrix(0.05,0,0,0.05,0,0)" xlink:href="#ag"/><use transform="matrix(0.05,0,0,0.05,12,0)" xlink:href="#ah"/><use transform="matrix(0.05,0,0,0.05,22,0)" xlink:href="#R"/><use transform="matrix(0.05,0,0,0.05,36.95,0)" xlink:href="#E"/><use transform="matrix(0.05,0,0,0.05,40.900000000000006,0)" xlink:href="#F"/><use transform="matrix(0.05,0,0,0.05,50.900000000000006,0)" xlink:href="#E"/><use transform="matrix(0.05,0,0,0.05,54.85,0)" xlink:href="#D"/><use transform="matrix(0.05,0,0,0.05,63.85,0)" xlink:href="#N"/><use transform="matrix(0.05,0,0,0.05,68.85000000000001,0)" xlink:href="#P"/><use transform="matrix(0.05,0,0,0.05,74.80000000000001,0)" xlink:href="#C"/><use transform="matrix(0.05,0,0,0.05,84.80000000000001,0)" xlink:href="#N"/><use transform="matrix(0.05,0,0,0.05,89.80000000000001,0)" xlink:href="#E"/><use transform="matrix(0.05,0,0,0.05,93.75000000000001,0)" xlink:href="#ai"/><use transform="matrix(0.05,0,0,0.05,102.75,0)" xlink:href="#H"/></g><path fill="#fff" d="M140-251c81 0 123 46 123 126C263-46 219 4 140 4 59 4 17-45 17-125s42-126 123-126zm0 227c63 0 89-41 89-101s-29-99-89-99c-61 0-89 39-89 99S79-25 140-24" id="aj"/><g id="o"><use transform="matrix(0.05,0,0,0.05,0,0)" xlink:href="#aj"/><use transform="matrix(0.05,0,0,0.05,14,0)" xlink:href="#P"/><use transform="matrix(0.05,0,0,0.05,19.95,0)" xlink:href="#I"/><use transform="matrix(0.05,0,0,0.05,29.950000000000003,0)" xlink:href="#K"/><use transform="matrix(0.05,0,0,0.05,39.95,0)" xlink:href="#H"/><use transform="matrix(0.05,0,0,0.05,49.95,0)" xlink:href="#F"/></g><path fill="#fff" d="M212-179c-10-28-35-45-73-45-59 0-87 40-87 99 0 60 29 101 89 101 43 0 62-24 78-52l27 14C228-24 195 4 139 4 59 4 22-46 18-125c-6-104 99-153 187-111 19 9 31 26 39 46" id="ak"/><g id="p"><use transform="matrix(0.05,0,0,0.05,0,0)" xlink:href="#ak"/><use transform="matrix(0.05,0,0,0.05,12.950000000000001,0)" xlink:href="#P"/><use transform="matrix(0.05,0,0,0.05,18.900000000000002,0)" xlink:href="#C"/><use transform="matrix(0.05,0,0,0.05,28.900000000000002,0)" xlink:href="#F"/><use transform="matrix(0.05,0,0,0.05,38.900000000000006,0)" xlink:href="#N"/><use transform="matrix(0.05,0,0,0.05,43.900000000000006,0)" xlink:href="#I"/><use transform="matrix(0.05,0,0,0.05,53.900000000000006,0)" xlink:href="#F"/></g><g id="q"><use transform="matrix(0.05,0,0,0.05,0,0)" xlink:href="#Y"/><use transform="matrix(0.05,0,0,0.05,12,0)" xlink:href="#P"/><use transform="matrix(0.05,0,0,0.05,17.95,0)" xlink:href="#I"/><use transform="matrix(0.05,0,0,0.05,27.950000000000003,0)" xlink:href="#ai"/><use transform="matrix(0.05,0,0,0.05,36.95,0)" xlink:href="#E"/><use transform="matrix(0.05,0,0,0.05,40.900000000000006,0)" xlink:href="#F"/><use transform="matrix(0.05,0,0,0.05,50.900000000000006,0)" xlink:href="#L"/><use transform="matrix(0.05,0,0,0.05,59.900000000000006,0)" xlink:href="#H"/></g><g id="r"><use transform="matrix(0.05,0,0,0.05,0,0)" xlink:href="#Q"/><use transform="matrix(0.05,0,0,0.05,12,0)" xlink:href="#O"/><use transform="matrix(0.05,0,0,0.05,22,0)" xlink:href="#Z"/><use transform="matrix(0.05,0,0,0.05,32,0)" xlink:href="#X"/><use transform="matrix(0.05,0,0,0.05,37.95,0)" xlink:href="#Y"/><use transform="matrix(0.05,0,0,0.05,49.95,0)" xlink:href="#P"/><use transform="matrix(0.05,0,0,0.05,55.900000000000006,0)" xlink:href="#I"/><use transform="matrix(0.05,0,0,0.05,65.9,0)" xlink:href="#ai"/><use transform="matrix(0.05,0,0,0.05,74.9,0)" xlink:href="#E"/><use transform="matrix(0.05,0,0,0.05,78.85000000000001,0)" xlink:href="#F"/><use transform="matrix(0.05,0,0,0.05,88.85000000000001,0)" xlink:href="#L"/><use transform="matrix(0.05,0,0,0.05,97.85000000000001,0)" xlink:href="#H"/></g></defs></g></svg>