<svg xmlns="http://www.w3.org/2000/svg" xmlns:xlink="http://www.w3.org/1999/xlink" xmlns:lucid="lucid" width="1820" height="834.9"><g transform="translate(1780 0)" lucid:page-tab-id="18pXMLy7b7CG"><path d="M-1806.4 0H64v1323.2h-1870.4z" fill="#fff"/><path d="M-860 25c0-2.76 2.24-5 5-5h150c2.76 0 5 2.24 5 5v110c0 2.76-2.24 5-5 5h-150c-2.76 0-5-2.24-5-5z" stroke="#000" stroke-width="2" fill="#fff"/><use xlink:href="#a" transform="matrix(1,0,0,1,-852,28) translate(23.549999999999997 55.6)"/><path d="M-1220 598.6c0-2.76 2.24-5 5-5h150c2.76 0 5 2.24 5 5v108c0 2.76-2.24 5-5 5h-150c-2.76 0-5-2.24-5-5z" stroke="#000" stroke-width="2" fill="#666"/><use xlink:href="#b" transform="matrix(1,0,0,1,-1212,601.5999999999998) translate(49.525 54.6)"/><path d="M-1140 591.6v-29.3h360v-27.2" stroke="#000" stroke-width="2" fill="none"/><path d="M-1139 592.6h-2v-1.03h2z"/><path d="M-780 519.84l4.64 14.26h-9.28z" stroke="#000" stroke-width="2" fill="#fff"/><path d="M-860 217.3c0-2.76 2.24-5 5-5h150c2.76 0 5 2.24 5 5v108c0 2.76-2.24 5-5 5h-150c-2.76 0-5-2.24-5-5z" stroke="#000" stroke-width="2" fill="#666"/><use xlink:href="#c" transform="matrix(1,0,0,1,-852,220.29999999999995) translate(29.574999999999996 43.8)"/><use xlink:href="#d" transform="matrix(1,0,0,1,-852,220.29999999999995) translate(41.05 65.4)"/><path d="M-860 407.6c0-2.76 2.24-5 5-5h150c2.76 0 5 2.24 5 5v103c0 2.76-2.24 5-5 5h-150c-2.76 0-5-2.24-5-5z" stroke="#000" stroke-width="2" fill="#666"/><use xlink:href="#e" transform="matrix(1,0,0,1,-852,410.5999999999997) translate(21.549999999999997 19.69999999999999)"/><use xlink:href="#f" transform="matrix(1,0,0,1,-852,410.5999999999997) translate(92.45 19.69999999999999)"/><use xlink:href="#g" transform="matrix(1,0,0,1,-852,410.5999999999997) translate(33.574999999999996 41.29999999999999)"/><use xlink:href="#h" transform="matrix(1,0,0,1,-852,410.5999999999997) translate(27.125 62.89999999999999)"/><use xlink:href="#d" transform="matrix(1,0,0,1,-852,410.5999999999997) translate(41.05 84.5)"/><path d="M-680 598.6c0-2.76 2.24-5 5-5h150c2.76 0 5 2.24 5 5v108c0 2.76-2.24 5-5 5h-150c-2.76 0-5-2.24-5-5z" stroke="#000" stroke-width="2" fill="#666"/><use xlink:href="#i" transform="matrix(1,0,0,1,-672,601.5999999999998) translate(42.025 54.6)"/><path d="M-500 598.6c0-2.76 2.24-5 5-5h150c2.76 0 5 2.24 5 5v108c0 2.76-2.24 5-5 5h-150c-2.76 0-5-2.24-5-5z" stroke="#000" stroke-width="2" fill="#666"/><use xlink:href="#j" transform="matrix(1,0,0,1,-492,601.5999999999998) translate(45.05 54.6)"/><path d="M-320 598.6c0-2.76 2.24-5 5-5h150c2.76 0 5 2.24 5 5v108c0 2.76-2.24 5-5 5h-150c-2.76 0-5-2.24-5-5z" stroke="#000" stroke-width="2" fill="#666"/><use xlink:href="#k" transform="matrix(1,0,0,1,-312,601.5999999999998) translate(37.05 54.6)"/><path d="M-140 598.6c0-2.76 2.24-5 5-5H15c2.76 0 5 2.24 5 5v108c0 2.76-2.24 5-5 5h-150c-2.76 0-5-2.24-5-5z" stroke="#000" stroke-width="2" fill="#666"/><use xlink:href="#l" transform="matrix(1,0,0,1,-132,601.5999999999998) translate(18.074999999999996 54.6)"/><path d="M-239 751.6h39.57v2H-241v-39.18h2zm180 2h-41.58v-2H-61v-38h2z"/><path d="M-59 713.63h-2v-1.03h2zM-228.96 731.27l-1.72 1.02-9.32-15.77-9.32 15.76-1.72-1.03L-240 712.6z"/><use xlink:href="#m" transform="matrix(1,0,0,1,-199.425,741.7999999999998) translate(0 14.4)"/><path d="M-600 591.6v-29.3h-180v-27.2" stroke="#000" stroke-width="2" fill="none"/><path d="M-599 592.6h-2v-1.03h2z"/><path d="M-780 519.84l4.64 14.26h-9.28z" stroke="#000" stroke-width="2" fill="#fff"/><path d="M-60 591.6v-29.3h-720v-27.2" stroke="#000" stroke-width="2" fill="none"/><path d="M-59 592.6h-2v-1.03h2z"/><path d="M-780 519.84l4.64 14.26h-9.28z" stroke="#000" stroke-width="2" fill="#fff"/><path d="M-420 591.6v-29.3h-360v-27.2" stroke="#000" stroke-width="2" fill="none"/><path d="M-419 592.6h-2v-1.03h2z"/><path d="M-780 519.84l4.64 14.26h-9.28z" stroke="#000" stroke-width="2" fill="#fff"/><path d="M-240 591.6v-29.3h-540v-27.2" stroke="#000" stroke-width="2" fill="none"/><path d="M-239 592.6h-2v-1.03h2z"/><path d="M-780 519.84l4.64 14.26h-9.28z" stroke="#000" stroke-width="2" fill="#fff"/><path d="M-1760 598.6c0-2.76 2.24-5 5-5h150c2.76 0 5 2.24 5 5v108c0 2.76-2.24 5-5 5h-150c-2.76 0-5-2.24-5-5z" stroke="#000" stroke-width="2" fill="#666"/><use xlink:href="#n" transform="matrix(1,0,0,1,-1752,601.5999999999998) translate(22.574999999999996 54.6)"/><path d="M-1040 598.6c0-2.76 2.24-5 5-5h150c2.76 0 5 2.24 5 5v108c0 2.76-2.24 5-5 5h-150c-2.76 0-5-2.24-5-5z" stroke="#000" stroke-width="2" fill="#666"/><use xlink:href="#o" transform="matrix(1,0,0,1,-1032,601.5999999999998) translate(30.549999999999997 54.6)"/><path d="M-1680 591.6v-29.3h900v-27.2" stroke="#000" stroke-width="2" fill="none"/><path d="M-1679 592.6h-2v-1.03h2z"/><path d="M-780 519.84l4.64 14.26h-9.28z" stroke="#000" stroke-width="2" fill="#fff"/><path d="M-1095.4 751.6h17.78v2h-19.78v-39.18h2zm136.4 2h-19.77v-2H-961v-38h2z"/><path d="M-959 713.63h-2v-1.03h2zM-1085.36 731.27l-1.72 1.02-9.32-15.77-9.32 15.76-1.72-1.03 11.04-18.67z"/><use xlink:href="#m" transform="matrix(1,0,0,1,-1077.6249999999998,741.7999999999998) translate(0 14.4)"/><path d="M-1679 801.3h209.05v2H-1681v-89.7h2zm540 2h-211.05v-2H-1141v-86.88h2z"/><path d="M-1679 713.63h-2v-1.03h2zM-1128.96 731.27l-1.72 1.02-9.32-15.77-9.32 15.76-1.72-1.03 11.04-18.67z"/><use xlink:href="#p" transform="matrix(1,0,0,1,-1469.95,780.6999999999999) translate(0.005000000000002558 14.4)"/><use xlink:href="#q" transform="matrix(1,0,0,1,-1469.95,780.6999999999999) translate(41.455000000000005 36)"/><path d="M-1400 598.6c0-2.76 2.24-5 5-5h150c2.76 0 5 2.24 5 5v108c0 2.76-2.24 5-5 5h-150c-2.76 0-5-2.24-5-5z" stroke="#000" stroke-width="2" fill="#666"/><use xlink:href="#r" transform="matrix(1,0,0,1,-1392,601.5999999999998) translate(43.875 54.6)"/><path d="M-1580 598.6c0-2.76 2.24-5 5-5h150c2.76 0 5 2.24 5 5v108c0 2.76-2.24 5-5 5h-150c-2.76 0-5-2.24-5-5z" stroke="#000" stroke-width="2" fill="#666"/><use xlink:href="#s" transform="matrix(1,0,0,1,-1572,601.5999999999998) translate(26.574999999999996 54.6)"/><path d="M-1319 751.6h10.85v2H-1321v-39.18h2zm143.6 2h-12.85v-2h10.85v-38h2z"/><path d="M-1175.4 713.63h-2v-1.03h2zM-1308.96 731.27l-1.72 1.02-9.32-15.77-9.32 15.76-1.72-1.03 11.04-18.67z"/><use xlink:href="#t" transform="matrix(1,0,0,1,-1308.1499999999999,741.7999999999998) translate(0.005000000000002558 14.4)"/><path d="M-960 591.6v-29.3h180v-27.2" stroke="#000" stroke-width="2" fill="none"/><path d="M-959 592.6h-2v-1.03h2z"/><path d="M-780 519.84l4.64 14.26h-9.28z" stroke="#000" stroke-width="2" fill="#fff"/><path d="M-860 598.6c0-2.76 2.24-5 5-5h150c2.76 0 5 2.24 5 5v108c0 2.76-2.24 5-5 5h-150c-2.76 0-5-2.24-5-5z" stroke="#000" stroke-width="2" fill="#666"/><use xlink:href="#u" transform="matrix(1,0,0,1,-852,601.5999999999998) translate(2.625 54.6)"/><use xlink:href="#v" transform="matrix(1,0,0,1,-852,601.5999999999998) translate(80.525 54.6)"/><path d="M-780 400.6v-50.8" stroke="#000" stroke-width="2" fill="none"/><path d="M-779 401.6h-2v-1.03h2z"/><path d="M-780 334.54l4.64 14.26h-9.28z" stroke="#000" stroke-width="2" fill="#fff"/><path d="M-780 210.3v-50.8" stroke="#000" stroke-width="2" fill="none"/><path d="M-779 211.3h-2v-1.03h2z"/><path d="M-780 144.24l4.64 14.26h-9.28z" stroke="#000" stroke-width="2" fill="#fff"/><path d="M-1500 591.6v-29.3h720v-27.2" stroke="#000" stroke-width="2" fill="none"/><path d="M-1499 592.6h-2v-1.03h2z"/><path d="M-780 519.84l4.64 14.26h-9.28z" stroke="#000" stroke-width="2" fill="#fff"/><path d="M-1320 591.6v-29.3h540v-27.2" stroke="#000" stroke-width="2" fill="none"/><path d="M-1319 592.6h-2v-1.03h2z"/><path d="M-780 519.84l4.64 14.26h-9.28z" stroke="#000" stroke-width="2" fill="#fff"/><path d="M-780 591.6v-56.5" stroke="#000" stroke-width="2" fill="none"/><path d="M-779 592.6h-2v-1.03h2z"/><path d="M-780 519.84l4.64 14.26h-9.28z" stroke="#000" stroke-width="2" fill="#fff"/><path d="M-1320 713.6v39h-180v-38.18" stroke="#000" stroke-width="2" fill="none"/><path d="M-1319 713.63h-2v-1.03h2z"/><path d="M-1489.82 731.78l-10.18-17.22-10.18 17.22" stroke="#000" stroke-width="2" fill="none"/><path d="M-779 751.6h29.05v2H-781v-40h2zm180 2h-31.05v-2H-601v-37.18h2z"/><path d="M-779 713.63h-2v-1.03h2zM-588.96 731.27l-1.72 1.02-9.32-15.77-9.32 15.76-1.72-1.03L-600 712.6z"/><use xlink:href="#p" transform="matrix(1,0,0,1,-749.95,730.9999999999998) translate(0.005000000000002558 14.4)"/><use xlink:href="#q" transform="matrix(1,0,0,1,-749.95,730.9999999999998) translate(41.455000000000005 36)"/><path d="M-1760 20h349.33v280H-1760z" fill-opacity="0"/><path d="M-1740.6 20h19.4m9.72 0h19.4m9.7 0h19.42m9.7 0h19.4m9.7 0h19.42m9.7 0h19.4m9.7 0h19.42m9.7 0h19.4m9.72 0h19.4m9.7 0h19.4m9.72 0h19.4m9.7 0h9.7v10.37m0 10.37v20.74m0 10.37V92.6m0 10.36v20.74m0 10.37v20.74m0 10.4v20.73m0 10.37v20.74m0 10.37v20.75m0 10.37v20.74m0 10.37V300h-9.7m-9.7 0h-19.4m-9.7 0h-19.4m-9.72 0h-19.4m-9.7 0h-19.4m-9.72 0h-19.4m-9.7 0h-19.42m-9.7 0h-19.4m-9.7 0h-19.42m-9.7 0h-19.4m-9.7 0h-19.42m-9.7 0h-19.4m-9.72 0h-9.7v-10.37m0-10.37v-20.74m0-10.37V227.4m0-10.36V196.3m0-10.37V165.2m0-10.4v-20.73m0-10.37v-20.74m0-10.37V71.84m0-10.37V40.74m0-10.37V20h9.7" stroke="#000" stroke-width="2" fill="none"/><path d="M-1750.67 65c0-2.76 2.24-5 5-5h150c2.76 0 5 2.24 5 5v110c0 2.76-2.24 5-5 5h-150c-2.76 0-5-2.24-5-5z" stroke="#000" stroke-width="2" fill="#fff"/><use xlink:href="#w" transform="matrix(1,0,0,1,-1742.6666666666667,68) translate(56.05 44.8)"/><use xlink:href="#x" transform="matrix(1,0,0,1,-1742.6666666666667,68) translate(49.55 66.4)"/><path d="M-1582.67 67c0-2.76 2.24-5 5-5h150c2.76 0 5 2.24 5 5v108c0 2.76-2.24 5-5 5h-150c-2.76 0-5-2.24-5-5z" stroke="#000" stroke-width="2" fill="#666"/><use xlink:href="#y" transform="matrix(1,0,0,1,-1574.666666666667,70) translate(-1.4000000000000057 43.8)"/><use xlink:href="#z" transform="matrix(1,0,0,1,-1574.666666666667,70) translate(49.55 65.4)"/><path d="M-1670.67 25c0-2.76 2.24-5 5-5h190c2.76 0 5 2.24 5 5v27c0 2.76-2.24 5-5 5h-190c-2.76 0-5-2.24-5-5z" stroke="#000" stroke-opacity="0" stroke-width="2" fill="#fff" fill-opacity="0"/><use xlink:href="#A" transform="matrix(1,0,0,1,-1665.6666666666667,25) translate(0 17.775)"/><use xlink:href="#B" transform="matrix(1,0,0,1,-1665.6666666666667,25) translate(72.80000000000001 17.775)"/><use xlink:href="#C" transform="matrix(1,0,0,1,-1665.6666666666667,25) translate(143.70000000000002 17.775)"/><path d="M-1663.1 275.52h-46.57v-2h46.58zm156.93 0h-29.07v-2h29.07z"/><path d="M-1709.64 275.52h-1.03v-2h1.03z"/><path d="M-1490.9 274.52l-14.27 4.64v-9.27z" fill="#fff"/><path d="M-1487.67 274.52l-18.5 6.02V268.5zm-16.5 3.26l10.03-3.25-10.03-3.26z"/><g><use xlink:href="#D" transform="matrix(1,0,0,1,-1599.166666666667,264.1249999999999) translate(0 13.866666666666669)"/></g><g><use xlink:href="#E" transform="matrix(1,0,0,1,-1663.091666666667,263.72499999999985) translate(0 14.4)"/></g><path d="M-1645.1 221h-64.57v-2h64.58zm155.62 0h-63.76v-2h63.76z"/><path d="M-1709.64 221h-1.03v-2h1.03zM-1487.67 220l-18.67 11.04-1.02-1.72 15.76-9.32-15.76-9.32 1.02-1.72z"/><g><use xlink:href="#D" transform="matrix(1,0,0,1,-1599.166666666667,209.6) translate(0 13.866666666666669)"/></g><g><use xlink:href="#F" transform="matrix(1,0,0,1,-1645.091666666667,209.2) translate(0 14.4)"/></g><defs><path d="M177-190C167-65 218 103 67 71c-23-6-38-20-44-43l32-5c15 47 100 32 89-28v-30C133-14 115 1 83 1 29 1 15-40 15-95c0-56 16-97 71-98 29-1 48 16 59 35 1-10 0-23 2-32h30zM94-22c36 0 50-32 50-73 0-42-14-75-50-75-39 0-46 34-46 75s6 73 46 73" id="G"/><path d="M100-194c63 0 86 42 84 106H49c0 40 14 67 53 68 26 1 43-12 49-29l28 8c-11 28-37 45-77 45C44 4 14-33 15-96c1-61 26-98 85-98zm52 81c6-60-76-77-97-28-3 7-6 17-6 28h103" id="H"/><path d="M100-194c62-1 85 37 85 99 1 63-27 99-86 99S16-35 15-95c0-66 28-99 85-99zM99-20c44 1 53-31 53-75 0-43-8-75-51-75s-53 32-53 75 10 74 51 75" id="I"/><path d="M33-154v-36h34v36H33zM33 0v-36h34V0H33" id="J"/><path d="M63-220v92h138v28H63V0H30v-248h175v28H63" id="K"/><path d="M141-36C126-15 110 5 73 4 37 3 15-17 15-53c-1-64 63-63 125-63 3-35-9-54-41-54-24 1-41 7-42 31l-33-3c5-37 33-52 76-52 45 0 72 20 72 64v82c-1 20 7 32 28 27v20c-31 9-61-2-59-35zM48-53c0 20 12 33 32 33 41-3 63-29 60-74-43 2-92-5-92 41" id="L"/><path d="M59-47c-2 24 18 29 38 22v24C64 9 27 4 27-40v-127H5v-23h24l9-43h21v43h35v23H59v120" id="M"/><path d="M84 4C-5 8 30-112 23-190h32v120c0 31 7 50 39 49 72-2 45-101 50-169h31l1 190h-30c-1-10 1-25-2-33-11 22-28 36-60 37" id="N"/><path d="M114-163C36-179 61-72 57 0H25l-1-190h30c1 12-1 29 2 39 6-27 23-49 58-41v29" id="O"/><g id="a"><use transform="matrix(0.05,0,0,0.05,0,0)" xlink:href="#G"/><use transform="matrix(0.05,0,0,0.05,10,0)" xlink:href="#H"/><use transform="matrix(0.05,0,0,0.05,20,0)" xlink:href="#I"/><use transform="matrix(0.05,0,0,0.05,30,0)" xlink:href="#J"/><use transform="matrix(0.05,0,0,0.05,35,0)" xlink:href="#K"/><use transform="matrix(0.05,0,0,0.05,45.95,0)" xlink:href="#H"/><use transform="matrix(0.05,0,0,0.05,55.95,0)" xlink:href="#L"/><use transform="matrix(0.05,0,0,0.05,65.95,0)" xlink:href="#M"/><use transform="matrix(0.05,0,0,0.05,70.95,0)" xlink:href="#N"/><use transform="matrix(0.05,0,0,0.05,80.95,0)" xlink:href="#O"/><use transform="matrix(0.05,0,0,0.05,86.9,0)" xlink:href="#H"/></g><path fill="#fff" d="M160-131c35 5 61 23 61 61C221 17 115-2 30 0v-248c76 3 177-17 177 60 0 33-19 50-47 57zm-97-11c50-1 110 9 110-42 0-47-63-36-110-37v79zm0 115c55-2 124 14 124-45 0-56-70-42-124-44v89" id="P"/><path fill="#fff" d="M141-36C126-15 110 5 73 4 37 3 15-17 15-53c-1-64 63-63 125-63 3-35-9-54-41-54-24 1-41 7-42 31l-33-3c5-37 33-52 76-52 45 0 72 20 72 64v82c-1 20 7 32 28 27v20c-31 9-61-2-59-35zM48-53c0 20 12 33 32 33 41-3 63-29 60-74-43 2-92-5-92 41" id="Q"/><path fill="#fff" d="M135-143c-3-34-86-38-87 0 15 53 115 12 119 90S17 21 10-45l28-5c4 36 97 45 98 0-10-56-113-15-118-90-4-57 82-63 122-42 12 7 21 19 24 35" id="R"/><path fill="#fff" d="M24-231v-30h32v30H24zM24 0v-190h32V0H24" id="S"/><path fill="#fff" d="M117-194c89-4 53 116 60 194h-32v-121c0-31-8-49-39-48C34-167 62-67 57 0H25l-1-190h30c1 10-1 24 2 32 11-22 29-35 61-36" id="T"/><g id="b"><use transform="matrix(0.05,0,0,0.05,0,0)" xlink:href="#P"/><use transform="matrix(0.05,0,0,0.05,12,0)" xlink:href="#Q"/><use transform="matrix(0.05,0,0,0.05,22,0)" xlink:href="#R"/><use transform="matrix(0.05,0,0,0.05,31,0)" xlink:href="#S"/><use transform="matrix(0.05,0,0,0.05,34.95,0)" xlink:href="#T"/></g><path fill="#fff" d="M143 4C61 4 22-44 18-125c-5-107 100-154 193-111 17 8 29 25 37 43l-32 9c-13-25-37-40-76-40-61 0-88 39-88 99 0 61 29 100 91 101 35 0 62-11 79-27v-45h-74v-28h105v86C228-13 192 4 143 4" id="U"/><path fill="#fff" d="M100-194c63 0 86 42 84 106H49c0 40 14 67 53 68 26 1 43-12 49-29l28 8c-11 28-37 45-77 45C44 4 14-33 15-96c1-61 26-98 85-98zm52 81c6-60-76-77-97-28-3 7-6 17-6 28h103" id="V"/><path fill="#fff" d="M100-194c62-1 85 37 85 99 1 63-27 99-86 99S16-35 15-95c0-66 28-99 85-99zM99-20c44 1 53-31 53-75 0-43-8-75-51-75s-53 32-53 75 10 74 51 75" id="W"/><path fill="#fff" d="M24 0v-261h32V0H24" id="X"/><path fill="#fff" d="M177-190C167-65 218 103 67 71c-23-6-38-20-44-43l32-5c15 47 100 32 89-28v-30C133-14 115 1 83 1 29 1 15-40 15-95c0-56 16-97 71-98 29-1 48 16 59 35 1-10 0-23 2-32h30zM94-22c36 0 50-32 50-73 0-42-14-75-50-75-39 0-46 34-46 75s6 73 46 73" id="Y"/><path fill="#fff" d="M96-169c-40 0-48 33-48 73s9 75 48 75c24 0 41-14 43-38l32 2c-6 37-31 61-74 61-59 0-76-41-82-99-10-93 101-131 147-64 4 7 5 14 7 22l-32 3c-4-21-16-35-41-35" id="Z"/><g id="c"><use transform="matrix(0.05,0,0,0.05,0,0)" xlink:href="#U"/><use transform="matrix(0.05,0,0,0.05,14,0)" xlink:href="#V"/><use transform="matrix(0.05,0,0,0.05,24,0)" xlink:href="#W"/><use transform="matrix(0.05,0,0,0.05,34,0)" xlink:href="#X"/><use transform="matrix(0.05,0,0,0.05,37.95,0)" xlink:href="#W"/><use transform="matrix(0.05,0,0,0.05,47.95,0)" xlink:href="#Y"/><use transform="matrix(0.05,0,0,0.05,57.95,0)" xlink:href="#S"/><use transform="matrix(0.05,0,0,0.05,61.900000000000006,0)" xlink:href="#Z"/><use transform="matrix(0.05,0,0,0.05,70.9,0)" xlink:href="#Q"/><use transform="matrix(0.05,0,0,0.05,80.9,0)" xlink:href="#X"/></g><path fill="#fff" d="M63-220v92h138v28H63V0H30v-248h175v28H63" id="aa"/><path fill="#fff" d="M59-47c-2 24 18 29 38 22v24C64 9 27 4 27-40v-127H5v-23h24l9-43h21v43h35v23H59v120" id="ab"/><path fill="#fff" d="M84 4C-5 8 30-112 23-190h32v120c0 31 7 50 39 49 72-2 45-101 50-169h31l1 190h-30c-1-10 1-25-2-33-11 22-28 36-60 37" id="ac"/><path fill="#fff" d="M114-163C36-179 61-72 57 0H25l-1-190h30c1 12-1 29 2 39 6-27 23-49 58-41v29" id="ad"/><g id="d"><use transform="matrix(0.05,0,0,0.05,0,0)" xlink:href="#aa"/><use transform="matrix(0.05,0,0,0.05,10.950000000000001,0)" xlink:href="#V"/><use transform="matrix(0.05,0,0,0.05,20.950000000000003,0)" xlink:href="#Q"/><use transform="matrix(0.05,0,0,0.05,30.950000000000003,0)" xlink:href="#ab"/><use transform="matrix(0.05,0,0,0.05,35.95,0)" xlink:href="#ac"/><use transform="matrix(0.05,0,0,0.05,45.95,0)" xlink:href="#ad"/><use transform="matrix(0.05,0,0,0.05,51.900000000000006,0)" xlink:href="#V"/></g><path fill="#fff" d="M127-220V0H93v-220H8v-28h204v28h-85" id="ae"/><g id="e"><use transform="matrix(0.05,0,0,0.05,0,0)" xlink:href="#ae"/><use transform="matrix(0.05,0,0,0.05,8.950000000000001,0)" xlink:href="#V"/><use transform="matrix(0.05,0,0,0.05,18.950000000000003,0)" xlink:href="#Z"/><use transform="matrix(0.05,0,0,0.05,27.950000000000003,0)" xlink:href="#ab"/><use transform="matrix(0.05,0,0,0.05,32.95,0)" xlink:href="#W"/><use transform="matrix(0.05,0,0,0.05,42.95,0)" xlink:href="#T"/><use transform="matrix(0.05,0,0,0.05,52.95,0)" xlink:href="#S"/><use transform="matrix(0.05,0,0,0.05,56.900000000000006,0)" xlink:href="#Z"/></g><path fill="#fff" d="M85-194c31 0 48 13 60 33l-1-100h32l1 261h-30c-2-10 0-23-3-31C134-8 116 4 85 4 32 4 16-35 15-94c0-66 23-100 70-100zm9 24c-40 0-46 34-46 75 0 40 6 74 45 74 42 0 51-32 51-76 0-42-9-74-50-73" id="af"/><g id="f"><use transform="matrix(0.05,0,0,0.05,0,0)" xlink:href="#Q"/><use transform="matrix(0.05,0,0,0.05,10,0)" xlink:href="#T"/><use transform="matrix(0.05,0,0,0.05,20,0)" xlink:href="#af"/></g><path fill="#fff" d="M185-189c-5-48-123-54-124 2 14 75 158 14 163 119 3 78-121 87-175 55-17-10-28-26-33-46l33-7c5 56 141 63 141-1 0-78-155-14-162-118-5-82 145-84 179-34 5 7 8 16 11 25" id="ag"/><g id="g"><use transform="matrix(0.05,0,0,0.05,0,0)" xlink:href="#ag"/><use transform="matrix(0.05,0,0,0.05,12,0)" xlink:href="#ab"/><use transform="matrix(0.05,0,0,0.05,17,0)" xlink:href="#ad"/><use transform="matrix(0.05,0,0,0.05,22.95,0)" xlink:href="#ac"/><use transform="matrix(0.05,0,0,0.05,32.95,0)" xlink:href="#Z"/><use transform="matrix(0.05,0,0,0.05,41.95,0)" xlink:href="#ab"/><use transform="matrix(0.05,0,0,0.05,46.95,0)" xlink:href="#ac"/><use transform="matrix(0.05,0,0,0.05,56.95,0)" xlink:href="#ad"/><use transform="matrix(0.05,0,0,0.05,62.900000000000006,0)" xlink:href="#Q"/><use transform="matrix(0.05,0,0,0.05,72.9,0)" xlink:href="#X"/></g><path fill="#fff" d="M210-169c-67 3-38 105-44 169h-31v-121c0-29-5-50-35-48C34-165 62-65 56 0H25l-1-190h30c1 10-1 24 2 32 10-44 99-50 107 0 11-21 27-35 58-36 85-2 47 119 55 194h-31v-121c0-29-5-49-35-48" id="ah"/><path fill="#fff" d="M206 0h-36l-40-164L89 0H53L-1-190h32L70-26l43-164h34l41 164 42-164h31" id="ai"/><path fill="#fff" d="M143 0L79-87 56-68V0H24v-261h32v163l83-92h37l-77 82L181 0h-38" id="aj"/><g id="h"><use transform="matrix(0.05,0,0,0.05,0,0)" xlink:href="#aa"/><use transform="matrix(0.05,0,0,0.05,10.950000000000001,0)" xlink:href="#ad"/><use transform="matrix(0.05,0,0,0.05,16.900000000000002,0)" xlink:href="#Q"/><use transform="matrix(0.05,0,0,0.05,26.900000000000002,0)" xlink:href="#ah"/><use transform="matrix(0.05,0,0,0.05,41.85,0)" xlink:href="#V"/><use transform="matrix(0.05,0,0,0.05,51.85,0)" xlink:href="#ai"/><use transform="matrix(0.05,0,0,0.05,64.8,0)" xlink:href="#W"/><use transform="matrix(0.05,0,0,0.05,74.8,0)" xlink:href="#ad"/><use transform="matrix(0.05,0,0,0.05,80.75,0)" xlink:href="#aj"/></g><path fill="#fff" d="M140-251c81 0 123 46 123 126C263-46 219 4 140 4 59 4 17-45 17-125s42-126 123-126zm0 227c63 0 89-41 89-101s-29-99-89-99c-61 0-89 39-89 99S79-25 140-24" id="ak"/><g id="i"><use transform="matrix(0.05,0,0,0.05,0,0)" xlink:href="#ak"/><use transform="matrix(0.05,0,0,0.05,14,0)" xlink:href="#ad"/><use transform="matrix(0.05,0,0,0.05,19.95,0)" xlink:href="#W"/><use transform="matrix(0.05,0,0,0.05,29.950000000000003,0)" xlink:href="#Y"/><use transform="matrix(0.05,0,0,0.05,39.95,0)" xlink:href="#V"/><use transform="matrix(0.05,0,0,0.05,49.95,0)" xlink:href="#T"/></g><path fill="#fff" d="M212-179c-10-28-35-45-73-45-59 0-87 40-87 99 0 60 29 101 89 101 43 0 62-24 78-52l27 14C228-24 195 4 139 4 59 4 22-46 18-125c-6-104 99-153 187-111 19 9 31 26 39 46" id="al"/><g id="j"><use transform="matrix(0.05,0,0,0.05,0,0)" xlink:href="#al"/><use transform="matrix(0.05,0,0,0.05,12.950000000000001,0)" xlink:href="#ad"/><use transform="matrix(0.05,0,0,0.05,18.900000000000002,0)" xlink:href="#Q"/><use transform="matrix(0.05,0,0,0.05,28.900000000000002,0)" xlink:href="#ab"/><use transform="matrix(0.05,0,0,0.05,33.900000000000006,0)" xlink:href="#W"/><use transform="matrix(0.05,0,0,0.05,43.900000000000006,0)" xlink:href="#T"/></g><path fill="#fff" d="M30-248c87 1 191-15 191 75 0 78-77 80-158 76V0H30v-248zm33 125c57 0 124 11 124-50 0-59-68-47-124-48v98" id="am"/><path fill="#fff" d="M108 0H70L1-190h34L89-25l56-165h34" id="an"/><g id="k"><use transform="matrix(0.05,0,0,0.05,0,0)" xlink:href="#am"/><use transform="matrix(0.05,0,0,0.05,12,0)" xlink:href="#ad"/><use transform="matrix(0.05,0,0,0.05,17.95,0)" xlink:href="#W"/><use transform="matrix(0.05,0,0,0.05,27.950000000000003,0)" xlink:href="#an"/><use transform="matrix(0.05,0,0,0.05,36.95,0)" xlink:href="#S"/><use transform="matrix(0.05,0,0,0.05,40.900000000000006,0)" xlink:href="#T"/><use transform="matrix(0.05,0,0,0.05,50.900000000000006,0)" xlink:href="#Z"/><use transform="matrix(0.05,0,0,0.05,59.900000000000006,0)" xlink:href="#V"/></g><path fill="#fff" d="M115-194c53 0 69 39 70 98 0 66-23 100-70 100C84 3 66-7 56-30L54 0H23l1-261h32v101c10-23 28-34 59-34zm-8 174c40 0 45-34 45-75 0-40-5-75-45-74-42 0-51 32-51 76 0 43 10 73 51 73" id="ao"/><path fill="#fff" d="M16-82v-28h88v28H16" id="ap"/><g id="l"><use transform="matrix(0.05,0,0,0.05,0,0)" xlink:href="#ag"/><use transform="matrix(0.05,0,0,0.05,12,0)" xlink:href="#ac"/><use transform="matrix(0.05,0,0,0.05,22,0)" xlink:href="#ao"/><use transform="matrix(0.05,0,0,0.05,32,0)" xlink:href="#ap"/><use transform="matrix(0.05,0,0,0.05,37.95,0)" xlink:href="#am"/><use transform="matrix(0.05,0,0,0.05,49.95,0)" xlink:href="#ad"/><use transform="matrix(0.05,0,0,0.05,55.900000000000006,0)" xlink:href="#W"/><use transform="matrix(0.05,0,0,0.05,65.9,0)" xlink:href="#an"/><use transform="matrix(0.05,0,0,0.05,74.9,0)" xlink:href="#S"/><use transform="matrix(0.05,0,0,0.05,78.85000000000001,0)" xlink:href="#T"/><use transform="matrix(0.05,0,0,0.05,88.85000000000001,0)" xlink:href="#Z"/><use transform="matrix(0.05,0,0,0.05,97.85000000000001,0)" xlink:href="#V"/></g><path d="M135-143c-3-34-86-38-87 0 15 53 115 12 119 90S17 21 10-45l28-5c4 36 97 45 98 0-10-56-113-15-118-90-4-57 82-63 122-42 12 7 21 19 24 35" id="aq"/><path d="M101-234c-31-9-42 10-38 44h38v23H63V0H32v-167H5v-23h27c-7-52 17-82 69-68v24" id="ar"/><path d="M266 0h-40l-56-210L115 0H75L2-248h35L96-30l15-64 43-154h32l59 218 59-218h35" id="as"/><path d="M24-231v-30h32v30H24zM24 0v-190h32V0H24" id="at"/><path d="M106-169C34-169 62-67 57 0H25v-261h32l-1 103c12-21 28-36 61-36 89 0 53 116 60 194h-32v-121c2-32-8-49-39-48" id="au"/><path d="M117-194c89-4 53 116 60 194h-32v-121c0-31-8-49-39-48C34-167 62-67 57 0H25l-1-190h30c1 10-1 24 2 32 11-22 29-35 61-36" id="av"/><g id="m"><use transform="matrix(0.05,0,0,0.05,0,0)" xlink:href="#G"/><use transform="matrix(0.05,0,0,0.05,10,0)" xlink:href="#H"/><use transform="matrix(0.05,0,0,0.05,20,0)" xlink:href="#I"/><use transform="matrix(0.05,0,0,0.05,30,0)" xlink:href="#J"/><use transform="matrix(0.05,0,0,0.05,35,0)" xlink:href="#aq"/><use transform="matrix(0.05,0,0,0.05,44,0)" xlink:href="#ar"/><use transform="matrix(0.05,0,0,0.05,49,0)" xlink:href="#as"/><use transform="matrix(0.05,0,0,0.05,65.95,0)" xlink:href="#at"/><use transform="matrix(0.05,0,0,0.05,69.9,0)" xlink:href="#M"/><use transform="matrix(0.05,0,0,0.05,74.9,0)" xlink:href="#au"/><use transform="matrix(0.05,0,0,0.05,84.9,0)" xlink:href="#at"/><use transform="matrix(0.05,0,0,0.05,88.85000000000001,0)" xlink:href="#av"/></g><path fill="#fff" d="M115-194c55 1 70 41 70 98S169 2 115 4C84 4 66-9 55-30l1 105H24l-1-265h31l2 30c10-21 28-34 59-34zm-8 174c40 0 45-34 45-75s-6-73-45-74c-42 0-51 32-51 76 0 43 10 73 51 73" id="aw"/><g id="n"><use transform="matrix(0.05,0,0,0.05,0,0)" xlink:href="#ag"/><use transform="matrix(0.05,0,0,0.05,12,0)" xlink:href="#ac"/><use transform="matrix(0.05,0,0,0.05,22,0)" xlink:href="#aw"/><use transform="matrix(0.05,0,0,0.05,32,0)" xlink:href="#V"/><use transform="matrix(0.05,0,0,0.05,42,0)" xlink:href="#ad"/><use transform="matrix(0.05,0,0,0.05,47.95,0)" xlink:href="#ap"/><use transform="matrix(0.05,0,0,0.05,53.900000000000006,0)" xlink:href="#P"/><use transform="matrix(0.05,0,0,0.05,65.9,0)" xlink:href="#Q"/><use transform="matrix(0.05,0,0,0.05,75.9,0)" xlink:href="#R"/><use transform="matrix(0.05,0,0,0.05,84.9,0)" xlink:href="#S"/><use transform="matrix(0.05,0,0,0.05,88.85000000000001,0)" xlink:href="#T"/></g><g id="o"><use transform="matrix(0.05,0,0,0.05,0,0)" xlink:href="#ag"/><use transform="matrix(0.05,0,0,0.05,12,0)" xlink:href="#ac"/><use transform="matrix(0.05,0,0,0.05,22,0)" xlink:href="#ao"/><use transform="matrix(0.05,0,0,0.05,32,0)" xlink:href="#ap"/><use transform="matrix(0.05,0,0,0.05,37.95,0)" xlink:href="#P"/><use transform="matrix(0.05,0,0,0.05,49.95,0)" xlink:href="#Q"/><use transform="matrix(0.05,0,0,0.05,59.95,0)" xlink:href="#R"/><use transform="matrix(0.05,0,0,0.05,68.95,0)" xlink:href="#S"/><use transform="matrix(0.05,0,0,0.05,72.9,0)" xlink:href="#T"/></g><path d="M212-179c-10-28-35-45-73-45-59 0-87 40-87 99 0 60 29 101 89 101 43 0 62-24 78-52l27 14C228-24 195 4 139 4 59 4 22-46 18-125c-6-104 99-153 187-111 19 9 31 26 39 46" id="ax"/><g id="p"><use transform="matrix(0.05,0,0,0.05,0,0)" xlink:href="#G"/><use transform="matrix(0.05,0,0,0.05,10,0)" xlink:href="#H"/><use transform="matrix(0.05,0,0,0.05,20,0)" xlink:href="#I"/><use transform="matrix(0.05,0,0,0.05,30,0)" xlink:href="#J"/><use transform="matrix(0.05,0,0,0.05,35,0)" xlink:href="#aq"/><use transform="matrix(0.05,0,0,0.05,44,0)" xlink:href="#ar"/><use transform="matrix(0.05,0,0,0.05,49,0)" xlink:href="#ax"/><use transform="matrix(0.05,0,0,0.05,61.95,0)" xlink:href="#I"/><use transform="matrix(0.05,0,0,0.05,71.95,0)" xlink:href="#av"/><use transform="matrix(0.05,0,0,0.05,81.95,0)" xlink:href="#M"/><use transform="matrix(0.05,0,0,0.05,86.95,0)" xlink:href="#L"/><use transform="matrix(0.05,0,0,0.05,96.95,0)" xlink:href="#at"/><use transform="matrix(0.05,0,0,0.05,100.9,0)" xlink:href="#av"/><use transform="matrix(0.05,0,0,0.05,110.9,0)" xlink:href="#aq"/></g><path d="M26 75v-336h71v23H56V52h41v23H26" id="ay"/><path d="M101-251c82-7 93 87 43 132L82-64C71-53 59-42 53-27h129V0H18c2-99 128-94 128-182 0-28-16-43-45-43s-46 15-49 41l-32-3c6-41 34-60 81-64" id="az"/><path d="M33 0v-38h34V0H33" id="aA"/><path d="M80-196l47-18 7 23-49 13 32 44-20 13-27-46-27 45-21-12 33-44-49-13 8-23 47 19-2-53h23" id="aB"/><path d="M3 75V52h41v-290H3v-23h71V75H3" id="aC"/><g id="q"><use transform="matrix(0.05,0,0,0.05,0,0)" xlink:href="#ay"/><use transform="matrix(0.05,0,0,0.05,5,0)" xlink:href="#az"/><use transform="matrix(0.05,0,0,0.05,15,0)" xlink:href="#aA"/><use transform="matrix(0.05,0,0,0.05,20,0)" xlink:href="#aA"/><use transform="matrix(0.05,0,0,0.05,25,0)" xlink:href="#aB"/><use transform="matrix(0.05,0,0,0.05,32,0)" xlink:href="#aC"/></g><path fill="#fff" d="M106-169C34-169 62-67 57 0H25v-261h32l-1 103c12-21 28-36 61-36 89 0 53 116 60 194h-32v-121c2-32-8-49-39-48" id="aD"/><g id="r"><use transform="matrix(0.05,0,0,0.05,0,0)" xlink:href="#ae"/><use transform="matrix(0.05,0,0,0.05,10.3,0)" xlink:href="#ad"/><use transform="matrix(0.05,0,0,0.05,16.25,0)" xlink:href="#W"/><use transform="matrix(0.05,0,0,0.05,26.25,0)" xlink:href="#ac"/><use transform="matrix(0.05,0,0,0.05,36.25,0)" xlink:href="#Y"/><use transform="matrix(0.05,0,0,0.05,46.25,0)" xlink:href="#aD"/></g><path fill="#fff" d="M30-248c118-7 216 8 213 122C240-48 200 0 122 0H30v-248zM63-27c89 8 146-16 146-99s-60-101-146-95v194" id="aE"/><g id="s"><use transform="matrix(0.05,0,0,0.05,0,0)" xlink:href="#aE"/><use transform="matrix(0.05,0,0,0.05,12.950000000000001,0)" xlink:href="#V"/><use transform="matrix(0.05,0,0,0.05,22.950000000000003,0)" xlink:href="#aw"/><use transform="matrix(0.05,0,0,0.05,32.95,0)" xlink:href="#ad"/><use transform="matrix(0.05,0,0,0.05,38.900000000000006,0)" xlink:href="#V"/><use transform="matrix(0.05,0,0,0.05,48.900000000000006,0)" xlink:href="#R"/><use transform="matrix(0.05,0,0,0.05,57.900000000000006,0)" xlink:href="#R"/><use transform="matrix(0.05,0,0,0.05,66.9,0)" xlink:href="#S"/><use transform="matrix(0.05,0,0,0.05,70.85000000000001,0)" xlink:href="#W"/><use transform="matrix(0.05,0,0,0.05,80.85000000000001,0)" xlink:href="#T"/></g><g id="t"><use transform="matrix(0.05,0,0,0.05,0,0)" xlink:href="#G"/><use transform="matrix(0.05,0,0,0.05,10,0)" xlink:href="#H"/><use transform="matrix(0.05,0,0,0.05,20,0)" xlink:href="#I"/><use transform="matrix(0.05,0,0,0.05,30,0)" xlink:href="#J"/><use transform="matrix(0.05,0,0,0.05,35,0)" xlink:href="#aq"/><use transform="matrix(0.05,0,0,0.05,44,0)" xlink:href="#ar"/><use transform="matrix(0.05,0,0,0.05,49,0)" xlink:href="#ax"/><use transform="matrix(0.05,0,0,0.05,61.95,0)" xlink:href="#I"/><use transform="matrix(0.05,0,0,0.05,71.95,0)" xlink:href="#av"/><use transform="matrix(0.05,0,0,0.05,81.95,0)" xlink:href="#M"/><use transform="matrix(0.05,0,0,0.05,86.95,0)" xlink:href="#L"/><use transform="matrix(0.05,0,0,0.05,96.95,0)" xlink:href="#at"/><use transform="matrix(0.05,0,0,0.05,100.9,0)" xlink:href="#av"/><use transform="matrix(0.05,0,0,0.05,110.9,0)" xlink:href="#aq"/></g><g id="u"><use transform="matrix(0.05,0,0,0.05,0,0)" xlink:href="#ak"/><use transform="matrix(0.05,0,0,0.05,14,0)" xlink:href="#ad"/><use transform="matrix(0.05,0,0,0.05,19.95,0)" xlink:href="#W"/><use transform="matrix(0.05,0,0,0.05,29.950000000000003,0)" xlink:href="#Y"/><use transform="matrix(0.05,0,0,0.05,39.95,0)" xlink:href="#V"/><use transform="matrix(0.05,0,0,0.05,49.95,0)" xlink:href="#T"/><use transform="matrix(0.05,0,0,0.05,59.95,0)" xlink:href="#S"/><use transform="matrix(0.05,0,0,0.05,63.900000000000006,0)" xlink:href="#Z"/></g><g id="v"><use transform="matrix(0.05,0,0,0.05,0,0)" xlink:href="#al"/><use transform="matrix(0.05,0,0,0.05,12.950000000000001,0)" xlink:href="#W"/><use transform="matrix(0.05,0,0,0.05,22.950000000000003,0)" xlink:href="#X"/><use transform="matrix(0.05,0,0,0.05,26.900000000000002,0)" xlink:href="#X"/><use transform="matrix(0.05,0,0,0.05,30.85,0)" xlink:href="#Q"/><use transform="matrix(0.05,0,0,0.05,40.85,0)" xlink:href="#Y"/><use transform="matrix(0.05,0,0,0.05,50.85,0)" xlink:href="#V"/></g><path d="M206 0h-36l-40-164L89 0H53L-1-190h32L70-26l43-164h34l41 164 42-164h31" id="aF"/><path d="M24 0v-261h32V0H24" id="aG"/><g id="w"><use transform="matrix(0.05,0,0,0.05,0,0)" xlink:href="#I"/><use transform="matrix(0.05,0,0,0.05,10,0)" xlink:href="#aF"/><use transform="matrix(0.05,0,0,0.05,22.950000000000003,0)" xlink:href="#aG"/><use transform="matrix(0.05,0,0,0.05,26.900000000000002,0)" xlink:href="#J"/></g><g id="x"><use transform="matrix(0.05,0,0,0.05,0,0)" xlink:href="#ax"/><use transform="matrix(0.05,0,0,0.05,12.950000000000001,0)" xlink:href="#aG"/><use transform="matrix(0.05,0,0,0.05,16.900000000000002,0)" xlink:href="#L"/><use transform="matrix(0.05,0,0,0.05,26.900000000000002,0)" xlink:href="#aq"/><use transform="matrix(0.05,0,0,0.05,35.900000000000006,0)" xlink:href="#aq"/></g><path fill="#fff" d="M205 0l-28-72H64L36 0H1l101-248h38L239 0h-34zm-38-99l-47-123c-12 45-31 82-46 123h93" id="aH"/><g id="y"><use transform="matrix(0.05,0,0,0.05,0,0)" xlink:href="#U"/><use transform="matrix(0.05,0,0,0.05,14,0)" xlink:href="#V"/><use transform="matrix(0.05,0,0,0.05,24,0)" xlink:href="#W"/><use transform="matrix(0.05,0,0,0.05,34,0)" xlink:href="#aH"/><use transform="matrix(0.05,0,0,0.05,46,0)" xlink:href="#af"/><use transform="matrix(0.05,0,0,0.05,56,0)" xlink:href="#ah"/><use transform="matrix(0.05,0,0,0.05,70.95,0)" xlink:href="#S"/><use transform="matrix(0.05,0,0,0.05,74.9,0)" xlink:href="#T"/><use transform="matrix(0.05,0,0,0.05,84.9,0)" xlink:href="#aa"/><use transform="matrix(0.05,0,0,0.05,95.85000000000001,0)" xlink:href="#V"/><use transform="matrix(0.05,0,0,0.05,105.85000000000001,0)" xlink:href="#Q"/><use transform="matrix(0.05,0,0,0.05,115.85000000000001,0)" xlink:href="#ab"/><use transform="matrix(0.05,0,0,0.05,120.85000000000001,0)" xlink:href="#ac"/><use transform="matrix(0.05,0,0,0.05,130.85000000000002,0)" xlink:href="#ad"/><use transform="matrix(0.05,0,0,0.05,136.8,0)" xlink:href="#V"/></g><g id="z"><use transform="matrix(0.05,0,0,0.05,0,0)" xlink:href="#al"/><use transform="matrix(0.05,0,0,0.05,12.950000000000001,0)" xlink:href="#X"/><use transform="matrix(0.05,0,0,0.05,16.900000000000002,0)" xlink:href="#Q"/><use transform="matrix(0.05,0,0,0.05,26.900000000000002,0)" xlink:href="#R"/><use transform="matrix(0.05,0,0,0.05,35.900000000000006,0)" xlink:href="#R"/></g><path d="M30-248c118-7 216 8 213 122C240-48 200 0 122 0H30v-248zM63-27c89 8 146-16 146-99s-60-101-146-95v194" id="aI"/><path d="M210-169c-67 3-38 105-44 169h-31v-121c0-29-5-50-35-48C34-165 62-65 56 0H25l-1-190h30c1 10-1 24 2 32 10-44 99-50 107 0 11-21 27-35 58-36 85-2 47 119 55 194h-31v-121c0-29-5-49-35-48" id="aJ"/><g id="A"><use transform="matrix(0.05,0,0,0.05,0,0)" xlink:href="#aI"/><use transform="matrix(0.05,0,0,0.05,12.950000000000001,0)" xlink:href="#at"/><use transform="matrix(0.05,0,0,0.05,16.900000000000002,0)" xlink:href="#L"/><use transform="matrix(0.05,0,0,0.05,26.900000000000002,0)" xlink:href="#G"/><use transform="matrix(0.05,0,0,0.05,36.900000000000006,0)" xlink:href="#O"/><use transform="matrix(0.05,0,0,0.05,42.85000000000001,0)" xlink:href="#L"/><use transform="matrix(0.05,0,0,0.05,52.85,0)" xlink:href="#aJ"/><path d="M-.9 1.25h74.6v1.32H-.9z"/></g><path d="M30 0v-248h187v28H63v79h144v27H63v87h162V0H30" id="aK"/><g id="B"><use transform="matrix(0.05,0,0,0.05,0,0)" xlink:href="#aK"/><use transform="matrix(0.05,0,0,0.05,12,0)" xlink:href="#aG"/><use transform="matrix(0.05,0,0,0.05,15.949999999999998,0)" xlink:href="#H"/><use transform="matrix(0.05,0,0,0.05,25.950000000000003,0)" xlink:href="#aJ"/><use transform="matrix(0.05,0,0,0.05,40.9,0)" xlink:href="#H"/><use transform="matrix(0.05,0,0,0.05,50.9,0)" xlink:href="#av"/><use transform="matrix(0.05,0,0,0.05,60.900000000000006,0)" xlink:href="#M"/><path d="M-.9 1.25h72.7v1.32H-.9z"/></g><path d="M194 0L95-120 63-95V0H30v-248h33v124l119-124h40L117-140 236 0h-42" id="aL"/><path d="M179-190L93 31C79 59 56 82 12 73V49c39 6 53-20 64-50L1-190h34L92-34l54-156h33" id="aM"/><g id="C"><use transform="matrix(0.05,0,0,0.05,0,0)" xlink:href="#aL"/><use transform="matrix(0.05,0,0,0.05,12,0)" xlink:href="#H"/><use transform="matrix(0.05,0,0,0.05,22,0)" xlink:href="#aM"/><path d="M-.9 1.25h32.8v1.32H-.9z"/></g><path d="M85-194c31 0 48 13 60 33l-1-100h32l1 261h-30c-2-10 0-23-3-31C134-8 116 4 85 4 32 4 16-35 15-94c0-66 23-100 70-100zm9 24c-40 0-46 34-46 75 0 40 6 74 45 74 42 0 51-32 51-76 0-42-9-74-50-73" id="aN"/><path d="M115-194c53 0 69 39 70 98 0 66-23 100-70 100C84 3 66-7 56-30L54 0H23l1-261h32v101c10-23 28-34 59-34zm-8 174c40 0 45-34 45-75 0-40-5-75-45-74-42 0-51 32-51 76 0 43 10 73 51 73" id="aO"/><path d="M140-251c81 0 123 46 123 126C263-46 219 4 140 4 59 4 17-45 17-125s42-126 123-126zm0 227c63 0 89-41 89-101s-29-99-89-99c-61 0-89 39-89 99S79-25 140-24" id="aP"/><g id="E"><use transform="matrix(0.05,0,0,0.05,0,0)" xlink:href="#O"/><use transform="matrix(0.05,0,0,0.05,5.95,0)" xlink:href="#aN"/><use transform="matrix(0.05,0,0,0.05,15.949999999999998,0)" xlink:href="#ar"/><use transform="matrix(0.05,0,0,0.05,20.95,0)" xlink:href="#aq"/><use transform="matrix(0.05,0,0,0.05,29.950000000000003,0)" xlink:href="#J"/><use transform="matrix(0.05,0,0,0.05,34.95,0)" xlink:href="#aq"/><use transform="matrix(0.05,0,0,0.05,43.95,0)" xlink:href="#N"/><use transform="matrix(0.05,0,0,0.05,53.95,0)" xlink:href="#aO"/><use transform="matrix(0.05,0,0,0.05,63.95,0)" xlink:href="#ax"/><use transform="matrix(0.05,0,0,0.05,76.9,0)" xlink:href="#aG"/><use transform="matrix(0.05,0,0,0.05,80.85000000000001,0)" xlink:href="#L"/><use transform="matrix(0.05,0,0,0.05,90.85000000000001,0)" xlink:href="#aq"/><use transform="matrix(0.05,0,0,0.05,99.85000000000001,0)" xlink:href="#aq"/><use transform="matrix(0.05,0,0,0.05,108.85000000000001,0)" xlink:href="#aP"/><use transform="matrix(0.05,0,0,0.05,122.85000000000001,0)" xlink:href="#ar"/></g><path d="M115-194c55 1 70 41 70 98S169 2 115 4C84 4 66-9 55-30l1 105H24l-1-265h31l2 30c10-21 28-34 59-34zm-8 174c40 0 45-34 45-75s-6-73-45-74c-42 0-51 32-51 76 0 43 10 73 51 73" id="aQ"/><g id="F"><use transform="matrix(0.05,0,0,0.05,0,0)" xlink:href="#O"/><use transform="matrix(0.05,0,0,0.05,5.95,0)" xlink:href="#aN"/><use transform="matrix(0.05,0,0,0.05,15.949999999999998,0)" xlink:href="#ar"/><use transform="matrix(0.05,0,0,0.05,20.95,0)" xlink:href="#J"/><use transform="matrix(0.05,0,0,0.05,25.950000000000003,0)" xlink:href="#aQ"/><use transform="matrix(0.05,0,0,0.05,35.95,0)" xlink:href="#O"/><use transform="matrix(0.05,0,0,0.05,41.900000000000006,0)" xlink:href="#I"/><use transform="matrix(0.05,0,0,0.05,51.900000000000006,0)" xlink:href="#aQ"/><use transform="matrix(0.05,0,0,0.05,61.900000000000006,0)" xlink:href="#H"/><use transform="matrix(0.05,0,0,0.05,71.9,0)" xlink:href="#O"/><use transform="matrix(0.05,0,0,0.05,77.85000000000001,0)" xlink:href="#M"/><use transform="matrix(0.05,0,0,0.05,82.85000000000001,0)" xlink:href="#aM"/></g></defs></g></svg>